<svg width="144" height="18" viewBox="0 0 144 18" fill="none" xmlns="http://www.w3.org/2000/svg">
<path d="M13.8313 5.14404C13.385 4.38849 12.2073 4.21836 10.4188 4.64798C9.59079 4.01926 8.59983 3.63119 7.55848 3.52785C6.51712 3.42451 5.46713 3.61003 4.52778 4.06335C3.58842 4.51667 2.79736 5.21961 2.24446 6.09231C1.69156 6.96501 1.39899 7.9725 1.39997 9.00031C1.40005 9.23607 1.41524 9.47158 1.44547 9.70546C-0.16976 11.3489 -0.146427 12.3227 0.169153 12.8566C0.46665 13.363 1.08731 13.5829 1.90397 13.5829C2.47097 13.5714 3.03464 13.4945 3.58337 13.3538C4.41146 13.9819 5.40231 14.3694 6.44339 14.4724C7.48448 14.5753 8.5341 14.3895 9.47309 13.9362C10.4121 13.4828 11.2028 12.7799 11.7555 11.9075C12.3082 11.035 12.6007 10.0278 12.5999 9.00031C12.6 8.76571 12.585 8.53134 12.5549 8.2986C13.2841 7.55393 13.7694 6.84648 13.9345 6.24101C14.0483 5.8217 14.0138 5.4528 13.8313 5.14404ZM6.99991 4.4177C8.05687 4.41877 9.08224 4.77167 9.90862 5.41879C10.735 6.06591 11.3136 6.96902 11.5499 7.98068C10.5547 8.90064 9.20781 9.84409 7.92915 10.5658C6.32209 11.4715 4.92794 12.0363 3.81611 12.3456C3.13133 11.7184 2.65469 10.9033 2.44825 10.0064C2.2418 9.10952 2.31512 8.17235 2.65865 7.31693C3.00218 6.46151 3.60002 5.72746 4.37432 5.21036C5.14862 4.69326 6.06352 4.41705 6.99991 4.4177ZM0.976478 12.3966C0.891312 12.2528 0.938561 11.9819 1.10598 11.6519C1.27153 11.3428 1.47295 11.0535 1.70622 10.7898C1.93745 11.4477 2.29375 12.0565 2.75621 12.5839C1.74997 12.75 1.12231 12.6441 0.976478 12.3966ZM6.99991 13.5829C6.21308 13.5837 5.439 13.3878 4.7506 13.0135C6.01414 12.5747 7.23331 12.0213 8.39231 11.3604C9.65113 10.6506 10.7653 9.88132 11.663 9.12175C11.6298 10.315 11.1241 11.4486 10.2534 12.2816C9.38266 13.1146 8.21553 13.5814 6.99991 13.5829ZM13.0327 6.00386C12.9335 6.36531 12.6716 6.77889 12.2959 7.21424C12.0653 6.55556 11.709 5.94608 11.246 5.41843C12.0749 5.28381 12.8425 5.29412 13.0251 5.60402C13.0776 5.69396 13.0805 5.82857 13.0327 6.00386Z" fill="white"/>
<mask id="path-2-outside-1_202_40" maskUnits="userSpaceOnUse" x="18" y="0" width="102" height="18" fill="black">
<rect fill="white" x="18" width="102" height="18"/>
<path d="M19.4091 15V3.36364H26.4318V4.61364H20.8182V8.54545H26.0682V9.79545H20.8182V13.75H26.5227V15H19.4091ZM31.358 15.2045C30.8049 15.2045 30.303 15.1004 29.8523 14.892C29.4015 14.6799 29.0436 14.375 28.7784 13.9773C28.5133 13.5758 28.3807 13.0909 28.3807 12.5227C28.3807 12.0227 28.4792 11.6174 28.6761 11.3068C28.8731 10.9924 29.1364 10.7462 29.4659 10.5682C29.7955 10.3902 30.1591 10.2576 30.5568 10.1705C30.9583 10.0795 31.3617 10.0076 31.767 9.95455C32.2973 9.88636 32.7273 9.83523 33.0568 9.80114C33.3902 9.76326 33.6326 9.70076 33.7841 9.61364C33.9394 9.52652 34.017 9.375 34.017 9.15909V9.11364C34.017 8.55303 33.8636 8.11742 33.5568 7.80682C33.2538 7.49621 32.7936 7.34091 32.1761 7.34091C31.536 7.34091 31.0341 7.48106 30.6705 7.76136C30.3068 8.04167 30.0511 8.34091 29.9034 8.65909L28.6307 8.20455C28.858 7.67424 29.161 7.26136 29.5398 6.96591C29.9223 6.66667 30.339 6.45833 30.7898 6.34091C31.2443 6.2197 31.6913 6.15909 32.1307 6.15909C32.411 6.15909 32.733 6.19318 33.0966 6.26136C33.464 6.32576 33.8182 6.46023 34.1591 6.66477C34.5038 6.86932 34.7898 7.17803 35.017 7.59091C35.2443 8.00379 35.358 8.55682 35.358 9.25V15H34.017V13.8182H33.9489C33.858 14.0076 33.7064 14.2102 33.4943 14.4261C33.2822 14.642 33 14.8258 32.6477 14.9773C32.2955 15.1288 31.8655 15.2045 31.358 15.2045ZM31.5625 14C32.0928 14 32.5398 13.8958 32.9034 13.6875C33.2708 13.4792 33.5473 13.2102 33.733 12.8807C33.9223 12.5511 34.017 12.2045 34.017 11.8409V10.6136C33.9602 10.6818 33.8352 10.7443 33.642 10.8011C33.4527 10.8542 33.233 10.9015 32.983 10.9432C32.7367 10.9811 32.4962 11.0152 32.2614 11.0455C32.0303 11.072 31.8428 11.0947 31.6989 11.1136C31.3504 11.1591 31.0246 11.233 30.7216 11.3352C30.4223 11.4337 30.1799 11.5833 29.9943 11.7841C29.8125 11.9811 29.7216 12.25 29.7216 12.5909C29.7216 13.0568 29.8939 13.4091 30.2386 13.6477C30.5871 13.8826 31.0284 14 31.5625 14ZM37.8054 15V6.27273H39.1009V7.59091H39.1918C39.3509 7.15909 39.6387 6.80871 40.0554 6.53977C40.4721 6.27083 40.9418 6.13636 41.4645 6.13636C41.563 6.13636 41.6861 6.13826 41.8338 6.14205C41.9815 6.14583 42.0933 6.15152 42.169 6.15909V7.52273C42.1236 7.51136 42.0194 7.49432 41.8565 7.47159C41.6974 7.44508 41.5289 7.43182 41.3509 7.43182C40.9266 7.43182 40.5478 7.52083 40.2145 7.69886C39.8849 7.87311 39.6236 8.11553 39.4304 8.42614C39.241 8.73295 39.1463 9.08333 39.1463 9.47727V15H37.8054ZM48.1009 6.27273V7.40909H43.5781V6.27273H48.1009ZM44.8963 4.18182H46.2372V12.5C46.2372 12.8788 46.2921 13.1629 46.402 13.3523C46.5156 13.5379 46.6596 13.6629 46.8338 13.7273C47.0118 13.7879 47.1993 13.8182 47.3963 13.8182C47.544 13.8182 47.6652 13.8106 47.7599 13.7955C47.8546 13.7765 47.9304 13.7614 47.9872 13.75L48.2599 14.9545C48.169 14.9886 48.0421 15.0227 47.8793 15.0568C47.7164 15.0947 47.5099 15.1136 47.2599 15.1136C46.8812 15.1136 46.5099 15.0322 46.1463 14.8693C45.7865 14.7064 45.4872 14.4583 45.2486 14.125C45.0137 13.7917 44.8963 13.3712 44.8963 12.8636V4.18182ZM51.6463 9.75V15H50.3054V3.36364H51.6463V7.63636H51.7599C51.9645 7.18561 52.2713 6.82765 52.6804 6.5625C53.0933 6.29356 53.6425 6.15909 54.3281 6.15909C54.9228 6.15909 55.4437 6.27841 55.8906 6.51705C56.3376 6.75189 56.6842 7.11364 56.9304 7.60227C57.1804 8.08712 57.3054 8.70455 57.3054 9.45455V15H55.9645V9.54545C55.9645 8.85227 55.7846 8.31629 55.4247 7.9375C55.0687 7.55492 54.5743 7.36364 53.9418 7.36364C53.5024 7.36364 53.1084 7.45644 52.7599 7.64205C52.4152 7.82765 52.1425 8.09848 51.9418 8.45455C51.7448 8.81061 51.6463 9.24242 51.6463 9.75ZM64.7358 9.18182C64.7358 7.75 64.9214 6.43371 65.2926 5.23295C65.6676 4.02841 66.2017 2.92045 66.8949 1.90909H68.0767C67.804 2.28409 67.5483 2.74621 67.3097 3.29545C67.0748 3.84091 66.8684 4.44129 66.6903 5.09659C66.5123 5.74811 66.3722 6.42235 66.2699 7.11932C66.1714 7.81629 66.1222 8.50379 66.1222 9.18182C66.1222 10.0833 66.2093 10.9981 66.3835 11.9261C66.5578 12.8542 66.7926 13.7159 67.0881 14.5114C67.3835 15.3068 67.7131 15.9545 68.0767 16.4545H66.8949C66.2017 15.4432 65.6676 14.3371 65.2926 13.1364C64.9214 11.9318 64.7358 10.6136 64.7358 9.18182ZM79.6009 7H78.1918C78.1084 6.5947 77.9626 6.23864 77.7543 5.93182C77.5497 5.625 77.2997 5.36742 77.0043 5.15909C76.7126 4.94697 76.3887 4.78788 76.0327 4.68182C75.6766 4.57576 75.3054 4.52273 74.919 4.52273C74.2145 4.52273 73.5762 4.70076 73.0043 5.05682C72.4361 5.41288 71.9834 5.9375 71.6463 6.63068C71.313 7.32386 71.1463 8.17424 71.1463 9.18182C71.1463 10.1894 71.313 11.0398 71.6463 11.733C71.9834 12.4261 72.4361 12.9508 73.0043 13.3068C73.5762 13.6629 74.2145 13.8409 74.919 13.8409C75.3054 13.8409 75.6766 13.7879 76.0327 13.6818C76.3887 13.5758 76.7126 13.4186 77.0043 13.2102C77.2997 12.9981 77.5497 12.7386 77.7543 12.4318C77.9626 12.1212 78.1084 11.7652 78.1918 11.3636H79.6009C79.4948 11.9583 79.3016 12.4905 79.0213 12.9602C78.741 13.4299 78.3925 13.8295 77.9759 14.1591C77.5592 14.4848 77.0914 14.733 76.5724 14.9034C76.0573 15.0739 75.5062 15.1591 74.919 15.1591C73.9266 15.1591 73.044 14.9167 72.2713 14.4318C71.4986 13.947 70.8906 13.2576 70.4474 12.3636C70.0043 11.4697 69.7827 10.4091 69.7827 9.18182C69.7827 7.95455 70.0043 6.89394 70.4474 6C70.8906 5.10606 71.4986 4.41667 72.2713 3.93182C73.044 3.44697 73.9266 3.20455 74.919 3.20455C75.5062 3.20455 76.0573 3.28977 76.5724 3.46023C77.0914 3.63068 77.5592 3.88068 77.9759 4.21023C78.3925 4.53598 78.741 4.93371 79.0213 5.40341C79.3016 5.86932 79.4948 6.40151 79.6009 7ZM86.696 8.55682V9.80682H81.6051V8.55682H86.696ZM93.1236 3.36364V15H91.7145V4.84091H91.6463L88.8054 6.72727V5.29545L91.7145 3.36364H93.1236ZM100.402 15.1591C99.652 15.1591 98.9834 15.0303 98.3963 14.7727C97.813 14.5152 97.349 14.1572 97.0043 13.6989C96.6634 13.2367 96.4777 12.7008 96.4474 12.0909H97.8793C97.9096 12.4659 98.0384 12.7898 98.2656 13.0625C98.4929 13.3314 98.7902 13.5398 99.1577 13.6875C99.5251 13.8352 99.9323 13.9091 100.379 13.9091C100.879 13.9091 101.322 13.822 101.709 13.6477C102.095 13.4735 102.398 13.2311 102.618 12.9205C102.838 12.6098 102.947 12.25 102.947 11.8409C102.947 11.4129 102.841 11.036 102.629 10.7102C102.417 10.3807 102.107 10.1231 101.697 9.9375C101.288 9.75189 100.788 9.65909 100.197 9.65909H99.2656V8.40909H100.197C100.66 8.40909 101.065 8.32576 101.413 8.15909C101.766 7.99242 102.04 7.75758 102.237 7.45455C102.438 7.15152 102.538 6.79545 102.538 6.38636C102.538 5.99242 102.451 5.64962 102.277 5.35795C102.103 5.06629 101.857 4.83901 101.538 4.67614C101.224 4.51326 100.853 4.43182 100.425 4.43182C100.023 4.43182 99.6444 4.50568 99.2884 4.65341C98.9361 4.79735 98.6482 5.00758 98.4247 5.28409C98.2012 5.55682 98.08 5.88636 98.0611 6.27273H96.6974C96.7202 5.66288 96.9039 5.12879 97.2486 4.67045C97.5933 4.20833 98.044 3.84848 98.6009 3.59091C99.1615 3.33333 99.777 3.20455 100.447 3.20455C101.167 3.20455 101.785 3.35038 102.3 3.64205C102.815 3.92992 103.211 4.31061 103.487 4.78409C103.764 5.25758 103.902 5.76894 103.902 6.31818C103.902 6.97348 103.73 7.5322 103.385 7.99432C103.044 8.45644 102.58 8.77652 101.993 8.95455V9.04545C102.728 9.16667 103.302 9.47917 103.714 9.98295C104.127 10.483 104.334 11.1023 104.334 11.8409C104.334 12.4735 104.161 13.0417 103.817 13.5455C103.476 14.0455 103.01 14.4394 102.419 14.7273C101.828 15.0152 101.156 15.1591 100.402 15.1591ZM107.021 15L112.226 4.70455V4.61364H106.226V3.36364H113.68V4.68182L108.499 15H107.021ZM118.685 9.18182C118.685 10.6136 118.497 11.9318 118.122 13.1364C117.751 14.3371 117.219 15.4432 116.526 16.4545H115.344C115.616 16.0795 115.87 15.6174 116.105 15.0682C116.344 14.5227 116.552 13.9242 116.73 13.2727C116.908 12.6174 117.046 11.9413 117.145 11.2443C117.247 10.5436 117.298 9.85606 117.298 9.18182C117.298 8.2803 117.211 7.36553 117.037 6.4375C116.863 5.50947 116.628 4.64773 116.332 3.85227C116.037 3.05682 115.707 2.40909 115.344 1.90909H116.526C117.219 2.92045 117.751 4.02841 118.122 5.23295C118.497 6.43371 118.685 7.75 118.685 9.18182Z"/>
</mask>
<path d="M19.4091 15V3.36364H26.4318V4.61364H20.8182V8.54545H26.0682V9.79545H20.8182V13.75H26.5227V15H19.4091ZM31.358 15.2045C30.8049 15.2045 30.303 15.1004 29.8523 14.892C29.4015 14.6799 29.0436 14.375 28.7784 13.9773C28.5133 13.5758 28.3807 13.0909 28.3807 12.5227C28.3807 12.0227 28.4792 11.6174 28.6761 11.3068C28.8731 10.9924 29.1364 10.7462 29.4659 10.5682C29.7955 10.3902 30.1591 10.2576 30.5568 10.1705C30.9583 10.0795 31.3617 10.0076 31.767 9.95455C32.2973 9.88636 32.7273 9.83523 33.0568 9.80114C33.3902 9.76326 33.6326 9.70076 33.7841 9.61364C33.9394 9.52652 34.017 9.375 34.017 9.15909V9.11364C34.017 8.55303 33.8636 8.11742 33.5568 7.80682C33.2538 7.49621 32.7936 7.34091 32.1761 7.34091C31.536 7.34091 31.0341 7.48106 30.6705 7.76136C30.3068 8.04167 30.0511 8.34091 29.9034 8.65909L28.6307 8.20455C28.858 7.67424 29.161 7.26136 29.5398 6.96591C29.9223 6.66667 30.339 6.45833 30.7898 6.34091C31.2443 6.2197 31.6913 6.15909 32.1307 6.15909C32.411 6.15909 32.733 6.19318 33.0966 6.26136C33.464 6.32576 33.8182 6.46023 34.1591 6.66477C34.5038 6.86932 34.7898 7.17803 35.017 7.59091C35.2443 8.00379 35.358 8.55682 35.358 9.25V15H34.017V13.8182H33.9489C33.858 14.0076 33.7064 14.2102 33.4943 14.4261C33.2822 14.642 33 14.8258 32.6477 14.9773C32.2955 15.1288 31.8655 15.2045 31.358 15.2045ZM31.5625 14C32.0928 14 32.5398 13.8958 32.9034 13.6875C33.2708 13.4792 33.5473 13.2102 33.733 12.8807C33.9223 12.5511 34.017 12.2045 34.017 11.8409V10.6136C33.9602 10.6818 33.8352 10.7443 33.642 10.8011C33.4527 10.8542 33.233 10.9015 32.983 10.9432C32.7367 10.9811 32.4962 11.0152 32.2614 11.0455C32.0303 11.072 31.8428 11.0947 31.6989 11.1136C31.3504 11.1591 31.0246 11.233 30.7216 11.3352C30.4223 11.4337 30.1799 11.5833 29.9943 11.7841C29.8125 11.9811 29.7216 12.25 29.7216 12.5909C29.7216 13.0568 29.8939 13.4091 30.2386 13.6477C30.5871 13.8826 31.0284 14 31.5625 14ZM37.8054 15V6.27273H39.1009V7.59091H39.1918C39.3509 7.15909 39.6387 6.80871 40.0554 6.53977C40.4721 6.27083 40.9418 6.13636 41.4645 6.13636C41.563 6.13636 41.6861 6.13826 41.8338 6.14205C41.9815 6.14583 42.0933 6.15152 42.169 6.15909V7.52273C42.1236 7.51136 42.0194 7.49432 41.8565 7.47159C41.6974 7.44508 41.5289 7.43182 41.3509 7.43182C40.9266 7.43182 40.5478 7.52083 40.2145 7.69886C39.8849 7.87311 39.6236 8.11553 39.4304 8.42614C39.241 8.73295 39.1463 9.08333 39.1463 9.47727V15H37.8054ZM48.1009 6.27273V7.40909H43.5781V6.27273H48.1009ZM44.8963 4.18182H46.2372V12.5C46.2372 12.8788 46.2921 13.1629 46.402 13.3523C46.5156 13.5379 46.6596 13.6629 46.8338 13.7273C47.0118 13.7879 47.1993 13.8182 47.3963 13.8182C47.544 13.8182 47.6652 13.8106 47.7599 13.7955C47.8546 13.7765 47.9304 13.7614 47.9872 13.75L48.2599 14.9545C48.169 14.9886 48.0421 15.0227 47.8793 15.0568C47.7164 15.0947 47.5099 15.1136 47.2599 15.1136C46.8812 15.1136 46.5099 15.0322 46.1463 14.8693C45.7865 14.7064 45.4872 14.4583 45.2486 14.125C45.0137 13.7917 44.8963 13.3712 44.8963 12.8636V4.18182ZM51.6463 9.75V15H50.3054V3.36364H51.6463V7.63636H51.7599C51.9645 7.18561 52.2713 6.82765 52.6804 6.5625C53.0933 6.29356 53.6425 6.15909 54.3281 6.15909C54.9228 6.15909 55.4437 6.27841 55.8906 6.51705C56.3376 6.75189 56.6842 7.11364 56.9304 7.60227C57.1804 8.08712 57.3054 8.70455 57.3054 9.45455V15H55.9645V9.54545C55.9645 8.85227 55.7846 8.31629 55.4247 7.9375C55.0687 7.55492 54.5743 7.36364 53.9418 7.36364C53.5024 7.36364 53.1084 7.45644 52.7599 7.64205C52.4152 7.82765 52.1425 8.09848 51.9418 8.45455C51.7448 8.81061 51.6463 9.24242 51.6463 9.75ZM64.7358 9.18182C64.7358 7.75 64.9214 6.43371 65.2926 5.23295C65.6676 4.02841 66.2017 2.92045 66.8949 1.90909H68.0767C67.804 2.28409 67.5483 2.74621 67.3097 3.29545C67.0748 3.84091 66.8684 4.44129 66.6903 5.09659C66.5123 5.74811 66.3722 6.42235 66.2699 7.11932C66.1714 7.81629 66.1222 8.50379 66.1222 9.18182C66.1222 10.0833 66.2093 10.9981 66.3835 11.9261C66.5578 12.8542 66.7926 13.7159 67.0881 14.5114C67.3835 15.3068 67.7131 15.9545 68.0767 16.4545H66.8949C66.2017 15.4432 65.6676 14.3371 65.2926 13.1364C64.9214 11.9318 64.7358 10.6136 64.7358 9.18182ZM79.6009 7H78.1918C78.1084 6.5947 77.9626 6.23864 77.7543 5.93182C77.5497 5.625 77.2997 5.36742 77.0043 5.15909C76.7126 4.94697 76.3887 4.78788 76.0327 4.68182C75.6766 4.57576 75.3054 4.52273 74.919 4.52273C74.2145 4.52273 73.5762 4.70076 73.0043 5.05682C72.4361 5.41288 71.9834 5.9375 71.6463 6.63068C71.313 7.32386 71.1463 8.17424 71.1463 9.18182C71.1463 10.1894 71.313 11.0398 71.6463 11.733C71.9834 12.4261 72.4361 12.9508 73.0043 13.3068C73.5762 13.6629 74.2145 13.8409 74.919 13.8409C75.3054 13.8409 75.6766 13.7879 76.0327 13.6818C76.3887 13.5758 76.7126 13.4186 77.0043 13.2102C77.2997 12.9981 77.5497 12.7386 77.7543 12.4318C77.9626 12.1212 78.1084 11.7652 78.1918 11.3636H79.6009C79.4948 11.9583 79.3016 12.4905 79.0213 12.9602C78.741 13.4299 78.3925 13.8295 77.9759 14.1591C77.5592 14.4848 77.0914 14.733 76.5724 14.9034C76.0573 15.0739 75.5062 15.1591 74.919 15.1591C73.9266 15.1591 73.044 14.9167 72.2713 14.4318C71.4986 13.947 70.8906 13.2576 70.4474 12.3636C70.0043 11.4697 69.7827 10.4091 69.7827 9.18182C69.7827 7.95455 70.0043 6.89394 70.4474 6C70.8906 5.10606 71.4986 4.41667 72.2713 3.93182C73.044 3.44697 73.9266 3.20455 74.919 3.20455C75.5062 3.20455 76.0573 3.28977 76.5724 3.46023C77.0914 3.63068 77.5592 3.88068 77.9759 4.21023C78.3925 4.53598 78.741 4.93371 79.0213 5.40341C79.3016 5.86932 79.4948 6.40151 79.6009 7ZM86.696 8.55682V9.80682H81.6051V8.55682H86.696ZM93.1236 3.36364V15H91.7145V4.84091H91.6463L88.8054 6.72727V5.29545L91.7145 3.36364H93.1236ZM100.402 15.1591C99.652 15.1591 98.9834 15.0303 98.3963 14.7727C97.813 14.5152 97.349 14.1572 97.0043 13.6989C96.6634 13.2367 96.4777 12.7008 96.4474 12.0909H97.8793C97.9096 12.4659 98.0384 12.7898 98.2656 13.0625C98.4929 13.3314 98.7902 13.5398 99.1577 13.6875C99.5251 13.8352 99.9323 13.9091 100.379 13.9091C100.879 13.9091 101.322 13.822 101.709 13.6477C102.095 13.4735 102.398 13.2311 102.618 12.9205C102.838 12.6098 102.947 12.25 102.947 11.8409C102.947 11.4129 102.841 11.036 102.629 10.7102C102.417 10.3807 102.107 10.1231 101.697 9.9375C101.288 9.75189 100.788 9.65909 100.197 9.65909H99.2656V8.40909H100.197C100.66 8.40909 101.065 8.32576 101.413 8.15909C101.766 7.99242 102.04 7.75758 102.237 7.45455C102.438 7.15152 102.538 6.79545 102.538 6.38636C102.538 5.99242 102.451 5.64962 102.277 5.35795C102.103 5.06629 101.857 4.83901 101.538 4.67614C101.224 4.51326 100.853 4.43182 100.425 4.43182C100.023 4.43182 99.6444 4.50568 99.2884 4.65341C98.9361 4.79735 98.6482 5.00758 98.4247 5.28409C98.2012 5.55682 98.08 5.88636 98.0611 6.27273H96.6974C96.7202 5.66288 96.9039 5.12879 97.2486 4.67045C97.5933 4.20833 98.044 3.84848 98.6009 3.59091C99.1615 3.33333 99.777 3.20455 100.447 3.20455C101.167 3.20455 101.785 3.35038 102.3 3.64205C102.815 3.92992 103.211 4.31061 103.487 4.78409C103.764 5.25758 103.902 5.76894 103.902 6.31818C103.902 6.97348 103.73 7.5322 103.385 7.99432C103.044 8.45644 102.58 8.77652 101.993 8.95455V9.04545C102.728 9.16667 103.302 9.47917 103.714 9.98295C104.127 10.483 104.334 11.1023 104.334 11.8409C104.334 12.4735 104.161 13.0417 103.817 13.5455C103.476 14.0455 103.01 14.4394 102.419 14.7273C101.828 15.0152 101.156 15.1591 100.402 15.1591ZM107.021 15L112.226 4.70455V4.61364H106.226V3.36364H113.68V4.68182L108.499 15H107.021ZM118.685 9.18182C118.685 10.6136 118.497 11.9318 118.122 13.1364C117.751 14.3371 117.219 15.4432 116.526 16.4545H115.344C115.616 16.0795 115.87 15.6174 116.105 15.0682C116.344 14.5227 116.552 13.9242 116.73 13.2727C116.908 12.6174 117.046 11.9413 117.145 11.2443C117.247 10.5436 117.298 9.85606 117.298 9.18182C117.298 8.2803 117.211 7.36553 117.037 6.4375C116.863 5.50947 116.628 4.64773 116.332 3.85227C116.037 3.05682 115.707 2.40909 115.344 1.90909H116.526C117.219 2.92045 117.751 4.02841 118.122 5.23295C118.497 6.43371 118.685 7.75 118.685 9.18182Z" fill="white"/>
<path d="M19.4091 15H18.4091V16H19.4091V15ZM19.4091 3.36364V2.36364H18.4091V3.36364H19.4091ZM26.4318 3.36364H27.4318V2.36364H26.4318V3.36364ZM26.4318 4.61364V5.61364H27.4318V4.61364H26.4318ZM20.8182 4.61364V3.61364H19.8182V4.61364H20.8182ZM20.8182 8.54545H19.8182V9.54545H20.8182V8.54545ZM26.0682 8.54545H27.0682V7.54545H26.0682V8.54545ZM26.0682 9.79545V10.7955H27.0682V9.79545H26.0682ZM20.8182 9.79545V8.79545H19.8182V9.79545H20.8182ZM20.8182 13.75H19.8182V14.75H20.8182V13.75ZM26.5227 13.75H27.5227V12.75H26.5227V13.75ZM26.5227 15V16H27.5227V15H26.5227ZM19.4091 15H20.4091V3.36364H19.4091H18.4091V15H19.4091ZM19.4091 3.36364V4.36364H26.4318V3.36364V2.36364H19.4091V3.36364ZM26.4318 3.36364H25.4318V4.61364H26.4318H27.4318V3.36364H26.4318ZM26.4318 4.61364V3.61364H20.8182V4.61364V5.61364H26.4318V4.61364ZM20.8182 4.61364H19.8182V8.54545H20.8182H21.8182V4.61364H20.8182ZM20.8182 8.54545V9.54545H26.0682V8.54545V7.54545H20.8182V8.54545ZM26.0682 8.54545H25.0682V9.79545H26.0682H27.0682V8.54545H26.0682ZM26.0682 9.79545V8.79545H20.8182V9.79545V10.7955H26.0682V9.79545ZM20.8182 9.79545H19.8182V13.75H20.8182H21.8182V9.79545H20.8182ZM20.8182 13.75V14.75H26.5227V13.75V12.75H20.8182V13.75ZM26.5227 13.75H25.5227V15H26.5227H27.5227V13.75H26.5227ZM26.5227 15V14H19.4091V15V16H26.5227V15ZM29.8523 14.892L29.4265 15.7969L29.4327 15.7998L29.8523 14.892ZM28.7784 13.9773L27.9439 14.5283L27.9464 14.532L28.7784 13.9773ZM28.6761 11.3068L29.5207 11.8424L29.5236 11.8377L28.6761 11.3068ZM30.5568 10.1705L30.7708 11.1473L30.7776 11.1458L30.5568 10.1705ZM31.767 9.95455L31.6395 8.96271L31.6373 8.963L31.767 9.95455ZM33.0568 9.80114L33.1597 10.7959L33.1697 10.7947L33.0568 9.80114ZM33.7841 9.61364L33.2948 8.74144L33.2856 8.74673L33.7841 9.61364ZM33.5568 7.80682L32.841 8.50516L32.8454 8.50957L33.5568 7.80682ZM30.6705 7.76136L31.281 8.55337H31.281L30.6705 7.76136ZM29.9034 8.65909L29.5671 9.60083L30.4262 9.90768L30.8104 9.0802L29.9034 8.65909ZM28.6307 8.20455L27.7115 7.81063L27.2925 8.78847L28.2943 9.14629L28.6307 8.20455ZM29.5398 6.96591L30.1548 7.75441L30.1559 7.75358L29.5398 6.96591ZM30.7898 6.34091L31.0419 7.30863L31.0474 7.30714L30.7898 6.34091ZM33.0966 6.26136L32.9123 7.2443L32.924 7.24635L33.0966 6.26136ZM34.1591 6.66477L33.6446 7.52227L33.6488 7.52476L34.1591 6.66477ZM35.017 7.59091L34.141 8.07314V8.07314L35.017 7.59091ZM35.358 15V16H36.358V15H35.358ZM34.017 15H33.017V16H34.017V15ZM34.017 13.8182H35.017V12.8182H34.017V13.8182ZM33.9489 13.8182V12.8182H33.3196L33.0473 13.3854L33.9489 13.8182ZM33.4943 14.4261L34.2077 15.127L33.4943 14.4261ZM32.6477 14.9773L32.2526 14.0586L32.6477 14.9773ZM32.9034 13.6875L32.4102 12.8176L32.4063 12.8198L32.9034 13.6875ZM33.733 12.8807L32.8659 12.3824L32.8616 12.3899L33.733 12.8807ZM34.017 10.6136H35.017V7.85157L33.2488 9.97345L34.017 10.6136ZM33.642 10.8011L33.9117 11.7642L33.9242 11.7605L33.642 10.8011ZM32.983 10.9432L33.135 11.9316L33.1474 11.9296L32.983 10.9432ZM32.2614 11.0455L32.3754 12.039L32.3893 12.0372L32.2614 11.0455ZM31.6989 11.1136L31.8282 12.1052L31.8293 12.1051L31.6989 11.1136ZM30.7216 11.3352L31.0342 12.2851L31.0414 12.2827L30.7216 11.3352ZM29.9943 11.7841L29.26 11.1052L29.2595 11.1058L29.9943 11.7841ZM30.2386 13.6477L29.6694 14.47L29.6798 14.477L30.2386 13.6477ZM31.358 15.2045V14.2045C30.9332 14.2045 30.5768 14.1253 30.2718 13.9843L29.8523 14.892L29.4327 15.7998C30.0293 16.0755 30.6766 16.2045 31.358 16.2045V15.2045ZM29.8523 14.892L30.2781 13.9872C29.9848 13.8492 29.7702 13.6622 29.6105 13.4226L28.7784 13.9773L27.9464 14.532C28.3169 15.0878 28.8182 15.5106 29.4265 15.7969L29.8523 14.892ZM28.7784 13.9773L29.6129 13.4262C29.474 13.2159 29.3807 12.9311 29.3807 12.5227H28.3807H27.3807C27.3807 13.2507 27.5525 13.9356 27.9439 14.5283L28.7784 13.9773ZM28.3807 12.5227H29.3807C29.3807 12.1463 29.4556 11.9449 29.5206 11.8424L28.6761 11.3068L27.8316 10.7713C27.5027 11.2899 27.3807 11.8991 27.3807 12.5227H28.3807ZM28.6761 11.3068L29.5236 11.8377C29.6278 11.6713 29.7623 11.5447 29.9412 11.448L29.4659 10.5682L28.9906 9.68836C28.5105 9.94774 28.1184 10.3135 27.8287 10.7759L28.6761 11.3068ZM29.4659 10.5682L29.9412 11.448C30.1818 11.318 30.4564 11.2162 30.7708 11.1473L30.5568 10.1705L30.3428 9.19361C29.8618 9.29899 29.4091 9.46227 28.9906 9.68836L29.4659 10.5682ZM30.5568 10.1705L30.7776 11.1458C31.1493 11.0616 31.5223 10.9951 31.8968 10.9461L31.767 9.95455L31.6373 8.963C31.2012 9.02006 30.7674 9.09747 30.336 9.19514L30.5568 10.1705ZM31.767 9.95455L31.8946 10.9464C32.421 10.8787 32.8418 10.8287 33.1597 10.7958L33.0568 9.80114L32.9539 8.80644C32.6127 8.84174 32.1737 8.89403 31.6395 8.96271L31.767 9.95455ZM33.0568 9.80114L33.1697 10.7947C33.5369 10.753 33.9478 10.6731 34.2826 10.4805L33.7841 9.61364L33.2856 8.74673C33.3135 8.73072 33.3073 8.73991 33.239 8.75752C33.1749 8.77405 33.0789 8.79219 32.9439 8.80753L33.0568 9.80114ZM33.7841 9.61364L34.2733 10.4858C34.8161 10.1813 35.017 9.64575 35.017 9.15909H34.017H33.017C33.017 9.14987 33.0186 9.07672 33.0689 8.97857C33.124 8.87095 33.2092 8.78952 33.2948 8.74149L33.7841 9.61364ZM34.017 9.15909H35.017V9.11364H34.017H33.017V9.15909H34.017ZM34.017 9.11364H35.017C35.017 8.36802 34.8084 7.65089 34.2682 7.10406L33.5568 7.80682L32.8454 8.50957C32.9189 8.58396 33.017 8.73804 33.017 9.11364H34.017ZM33.5568 7.80682L34.2726 7.10849C33.7137 6.53563 32.9477 6.34091 32.1761 6.34091V7.34091V8.34091C32.6395 8.34091 32.7939 8.45679 32.841 8.50514L33.5568 7.80682ZM32.1761 7.34091V6.34091C31.4005 6.34091 30.6559 6.50999 30.0599 6.96935L30.6705 7.76136L31.281 8.55337C31.4123 8.45213 31.6715 8.34091 32.1761 8.34091V7.34091ZM30.6705 7.76136L30.0599 6.96935C29.607 7.31848 29.2294 7.7362 28.9964 8.23798L29.9034 8.65909L30.8104 9.0802C30.8729 8.94562 31.0066 8.76485 31.281 8.55337L30.6705 7.76136ZM29.9034 8.65909L30.2397 7.71735L28.967 7.2628L28.6307 8.20455L28.2943 9.14629L29.5671 9.60083L29.9034 8.65909ZM28.6307 8.20455L29.5498 8.59846C29.724 8.19217 29.9334 7.92712 30.1548 7.75441L29.5398 6.96591L28.9247 6.17741C28.3886 6.5956 27.992 7.15632 27.7115 7.81063L28.6307 8.20455ZM29.5398 6.96591L30.1559 7.75358C30.4354 7.53493 30.7291 7.39008 31.0419 7.30861L30.7898 6.34091L30.5377 5.37321C29.9489 5.52659 29.4093 5.7984 28.9237 6.17824L29.5398 6.96591ZM30.7898 6.34091L31.0474 7.30714C31.4238 7.20677 31.7842 7.15909 32.1307 7.15909V6.15909V5.15909C31.5984 5.15909 31.0648 5.23262 30.5321 5.37467L30.7898 6.34091ZM32.1307 6.15909V7.15909C32.3332 7.15909 32.5914 7.18407 32.9123 7.24424L33.0966 6.26136L33.2809 5.27849C32.8745 5.2023 32.4888 5.15909 32.1307 5.15909V6.15909ZM33.0966 6.26136L32.924 7.24635C33.1628 7.28821 33.4019 7.37664 33.6446 7.52226L34.1591 6.66477L34.6736 5.80728C34.2345 5.54382 33.7652 5.3633 33.2692 5.27638L33.0966 6.26136ZM34.1591 6.66477L33.6488 7.52476C33.8149 7.62336 33.9845 7.78882 34.141 8.07314L35.017 7.59091L35.8931 7.10868C35.5951 6.56725 35.1926 6.11527 34.6694 5.80479L34.1591 6.66477ZM35.017 7.59091L34.141 8.07314C34.2576 8.28491 34.358 8.65168 34.358 9.25H35.358H36.358C36.358 8.46195 36.2311 7.72266 35.8931 7.10868L35.017 7.59091ZM35.358 9.25H34.358V15H35.358H36.358V9.25H35.358ZM35.358 15V14H34.017V15V16H35.358V15ZM34.017 15H35.017V13.8182H34.017H33.017V15H34.017ZM34.017 13.8182V12.8182H33.9489V13.8182V14.8182H34.017V13.8182ZM33.9489 13.8182L33.0473 13.3854C33.0199 13.4425 32.947 13.5563 32.781 13.7253L33.4943 14.4261L34.2077 15.127C34.4659 14.8641 34.696 14.5726 34.8504 14.2509L33.9489 13.8182ZM33.4943 14.4261L32.781 13.7253C32.6805 13.8276 32.5163 13.9452 32.2526 14.0586L32.6477 14.9773L33.0428 15.8959C33.4837 15.7063 33.8839 15.4565 34.2077 15.127L33.4943 14.4261ZM32.6477 14.9773L32.2526 14.0586C32.0585 14.1421 31.7714 14.2045 31.358 14.2045V15.2045V16.2045C31.9596 16.2045 32.5324 16.1154 33.0428 15.8959L32.6477 14.9773ZM31.5625 14V15C32.2217 15 32.8504 14.8703 33.4005 14.5552L32.9034 13.6875L32.4063 12.8198C32.2291 12.9213 31.9639 13 31.5625 13V14ZM32.9034 13.6875L33.3966 14.5574C33.9033 14.2701 34.3193 13.8773 34.6043 13.3714L33.733 12.8807L32.8616 12.3899C32.7754 12.5431 32.6384 12.6882 32.4102 12.8176L32.9034 13.6875ZM33.733 12.8807L34.6 13.379C34.8724 12.905 35.017 12.3875 35.017 11.8409H34.017H33.017C33.017 12.0216 32.9723 12.1973 32.8659 12.3824L33.733 12.8807ZM34.017 11.8409H35.017V10.6136H34.017H33.017V11.8409H34.017ZM34.017 10.6136L33.2488 9.97345C33.3006 9.91137 33.3492 9.87242 33.378 9.85169C33.4076 9.83046 33.4283 9.81982 33.4335 9.81722C33.4415 9.81322 33.4222 9.82345 33.3599 9.84177L33.642 10.8011L33.9242 11.7605C34.0551 11.722 34.1949 11.6726 34.3279 11.6061C34.4506 11.5447 34.6324 11.4373 34.7853 11.2538L34.017 10.6136ZM33.642 10.8011L33.3724 9.83817C33.2259 9.87921 33.0426 9.91944 32.8186 9.95679L32.983 10.9432L33.1474 11.9296C33.4233 11.8836 33.6794 11.8291 33.9117 11.7641L33.642 10.8011ZM32.983 10.9432L32.8309 9.95481C32.5923 9.99152 32.3598 10.0245 32.1334 10.0537L32.2614 11.0455L32.3893 12.0372C32.6326 12.0058 32.8812 11.9706 33.135 11.9316L32.983 10.9432ZM32.2614 11.0455L32.1474 10.052C31.9136 10.0788 31.7201 10.1022 31.5684 10.1222L31.6989 11.1136L31.8293 12.1051C31.9655 12.0872 32.147 12.0651 32.3754 12.0389L32.2614 11.0455ZM31.6989 11.1136L31.5695 10.122C31.1626 10.1751 30.7725 10.2626 30.4018 10.3877L30.7216 11.3352L31.0414 12.2827C31.2768 12.2033 31.5382 12.1431 31.8282 12.1052L31.6989 11.1136ZM30.7216 11.3352L30.409 10.3853C29.9732 10.5288 29.5774 10.7619 29.26 11.1052L29.9943 11.7841L30.7286 12.4629C30.7824 12.4047 30.8714 12.3387 31.0342 12.2851L30.7216 11.3352ZM29.9943 11.7841L29.2595 11.1058C28.8645 11.5337 28.7216 12.0695 28.7216 12.5909H29.7216H30.7216C30.7216 12.5082 30.7327 12.4667 30.7371 12.4538C30.7403 12.4442 30.739 12.4517 30.7291 12.4624L29.9943 11.7841ZM29.7216 12.5909H28.7216C28.7216 13.3423 29.0217 14.0215 29.6694 14.4699L30.2386 13.6477L30.8078 12.8255C30.7661 12.7966 30.7549 12.777 30.7491 12.7651C30.7413 12.7492 30.7216 12.6999 30.7216 12.5909H29.7216ZM30.2386 13.6477L29.6798 14.477C30.233 14.8498 30.8831 15 31.5625 15V14V13C31.1737 13 30.9412 12.9153 30.7975 12.8185L30.2386 13.6477ZM37.8054 15H36.8054V16H37.8054V15ZM37.8054 6.27273V5.27273H36.8054V6.27273H37.8054ZM39.1009 6.27273H40.1009V5.27273H39.1009V6.27273ZM39.1009 7.59091H38.1009V8.59091H39.1009V7.59091ZM39.1918 7.59091V8.59091H39.889L40.1301 7.93661L39.1918 7.59091ZM40.0554 6.53977L39.5131 5.69959L39.5131 5.69959L40.0554 6.53977ZM42.169 6.15909H43.169V5.25411L42.2685 5.16405L42.169 6.15909ZM42.169 7.52273L41.9265 8.49287L43.169 8.8035V7.52273H42.169ZM41.8565 7.47159L41.6921 8.45798L41.7052 8.46016L41.7183 8.462L41.8565 7.47159ZM40.2145 7.69886L40.6819 8.58291L40.6856 8.58094L40.2145 7.69886ZM39.4304 8.42614L38.5812 7.898L38.5795 7.90087L39.4304 8.42614ZM39.1463 15V16H40.1463V15H39.1463ZM37.8054 15H38.8054V6.27273H37.8054H36.8054V15H37.8054ZM37.8054 6.27273V7.27273H39.1009V6.27273V5.27273H37.8054V6.27273ZM39.1009 6.27273H38.1009V7.59091H39.1009H40.1009V6.27273H39.1009ZM39.1009 7.59091V8.59091H39.1918V7.59091V6.59091H39.1009V7.59091ZM39.1918 7.59091L40.1301 7.93661C40.2083 7.72434 40.3481 7.54104 40.5977 7.37996L40.0554 6.53977L39.5131 5.69959C38.9293 6.07638 38.4934 6.59384 38.2534 7.2452L39.1918 7.59091ZM40.0554 6.53977L40.5977 7.37996C40.8438 7.22111 41.1232 7.13636 41.4645 7.13636V6.13636V5.13636C40.7603 5.13636 40.1003 5.32055 39.5131 5.69959L40.0554 6.53977ZM41.4645 6.13636V7.13636C41.5513 7.13636 41.6652 7.13805 41.8082 7.14172L41.8338 6.14205L41.8594 5.14237C41.7069 5.13846 41.5746 5.13636 41.4645 5.13636V6.13636ZM41.8338 6.14205L41.8082 7.14172C41.9496 7.14534 42.0315 7.15033 42.0695 7.15413L42.169 6.15909L42.2685 5.16405C42.155 5.1527 42.0135 5.14632 41.8594 5.14237L41.8338 6.14205ZM42.169 6.15909H41.169V7.52273H42.169H43.169V6.15909H42.169ZM42.169 7.52273L42.4116 6.55258C42.304 6.5257 42.1427 6.50183 41.9947 6.48119L41.8565 7.47159L41.7183 8.462C41.7958 8.4728 41.854 8.48153 41.8953 8.48829C41.9159 8.49167 41.9295 8.49409 41.9374 8.49559C41.9473 8.49747 41.9415 8.49661 41.9265 8.49287L42.169 7.52273ZM41.8565 7.47159L42.0209 6.4852C41.8023 6.44875 41.5784 6.43182 41.3509 6.43182V7.43182V8.43182C41.4794 8.43182 41.5926 8.4414 41.6921 8.45798L41.8565 7.47159ZM41.3509 7.43182V6.43182C40.7827 6.43182 40.2387 6.55224 39.7434 6.81679L40.2145 7.69886L40.6856 8.58094C40.8569 8.48942 41.0705 8.43182 41.3509 8.43182V7.43182ZM40.2145 7.69886L39.7471 6.81483C39.2642 7.07016 38.8698 7.43407 38.5812 7.898L39.4304 8.42614L40.2796 8.95427C40.3774 8.79699 40.5057 8.67605 40.6819 8.5829L40.2145 7.69886ZM39.4304 8.42614L38.5795 7.90087C38.2837 8.38003 38.1463 8.91559 38.1463 9.47727H39.1463H40.1463C40.1463 9.25108 40.1983 9.08588 40.2813 8.95141L39.4304 8.42614ZM39.1463 9.47727H38.1463V15H39.1463H40.1463V9.47727H39.1463ZM39.1463 15V14H37.8054V15V16H39.1463V15ZM48.1009 6.27273H49.1009V5.27273H48.1009V6.27273ZM48.1009 7.40909V8.40909H49.1009V7.40909H48.1009ZM43.5781 7.40909H42.5781V8.40909H43.5781V7.40909ZM43.5781 6.27273V5.27273H42.5781V6.27273H43.5781ZM44.8963 4.18182V3.18182H43.8963V4.18182H44.8963ZM46.2372 4.18182H47.2372V3.18182H46.2372V4.18182ZM46.402 13.3523L45.537 13.854L45.5429 13.8643L45.5491 13.8744L46.402 13.3523ZM46.8338 13.7273L46.4872 14.6653L46.4993 14.6698L46.5115 14.6739L46.8338 13.7273ZM47.7599 13.7955L47.9179 14.7829L47.9371 14.7798L47.9561 14.776L47.7599 13.7955ZM47.9872 13.75L48.9625 13.5292L48.7472 12.5782L47.7911 12.7694L47.9872 13.75ZM48.2599 14.9545L48.6111 15.8909L49.4279 15.5846L49.2353 14.7337L48.2599 14.9545ZM47.8793 15.0568L47.6744 14.078L47.6635 14.0803L47.6527 14.0828L47.8793 15.0568ZM46.1463 14.8693L45.7339 15.7803L45.7375 15.7819L46.1463 14.8693ZM45.2486 14.125L44.4311 14.701L44.4355 14.7071L45.2486 14.125ZM48.1009 6.27273H47.1009V7.40909H48.1009H49.1009V6.27273H48.1009ZM48.1009 7.40909V6.40909H43.5781V7.40909V8.40909H48.1009V7.40909ZM43.5781 7.40909H44.5781V6.27273H43.5781H42.5781V7.40909H43.5781ZM43.5781 6.27273V7.27273H48.1009V6.27273V5.27273H43.5781V6.27273ZM44.8963 4.18182V5.18182H46.2372V4.18182V3.18182H44.8963V4.18182ZM46.2372 4.18182H45.2372V12.5H46.2372H47.2372V4.18182H46.2372ZM46.2372 12.5H45.2372C45.2372 12.9427 45.2956 13.4379 45.537 13.854L46.402 13.3523L47.267 12.8506C47.283 12.878 47.2729 12.8728 47.2602 12.8073C47.2479 12.7436 47.2372 12.644 47.2372 12.5H46.2372ZM46.402 13.3523L45.5491 13.8744C45.7591 14.2173 46.0675 14.5102 46.4872 14.6653L46.8338 13.7273L47.1805 12.7893C47.2095 12.8 47.2341 12.8157 47.2509 12.8302C47.2662 12.8435 47.2657 12.8478 47.2548 12.8301L46.402 13.3523ZM46.8338 13.7273L46.5115 14.6739C46.7982 14.7715 47.095 14.8182 47.3963 14.8182V13.8182V12.8182C47.3037 12.8182 47.2255 12.8043 47.1561 12.7806L46.8338 13.7273ZM47.3963 13.8182V14.8182C47.5719 14.8182 47.751 14.8096 47.9179 14.7829L47.7599 13.7955L47.602 12.808C47.5795 12.8116 47.5161 12.8182 47.3963 12.8182V13.8182ZM47.7599 13.7955L47.9561 14.776C48.0508 14.7571 48.1265 14.7419 48.1833 14.7306L47.9872 13.75L47.7911 12.7694C47.7343 12.7808 47.6585 12.7959 47.5638 12.8149L47.7599 13.7955ZM47.9872 13.75L47.0119 13.9708L47.2846 15.1754L48.2599 14.9545L49.2353 14.7337L48.9625 13.5292L47.9872 13.75ZM48.2599 14.9545L47.9088 14.0182C47.8874 14.0263 47.8173 14.0481 47.6744 14.078L47.8793 15.0568L48.0841 16.0356C48.267 15.9973 48.4507 15.951 48.6111 15.8909L48.2599 14.9545ZM47.8793 15.0568L47.6527 14.0828C47.5909 14.0972 47.4673 14.1136 47.2599 14.1136V15.1136V16.1136C47.5526 16.1136 47.8418 16.0922 48.1058 16.0308L47.8793 15.0568ZM47.2599 15.1136V14.1136C47.0293 14.1136 46.797 14.065 46.5551 13.9567L46.1463 14.8693L45.7375 15.7819C46.2229 15.9994 46.733 16.1136 47.2599 16.1136V15.1136ZM46.1463 14.8693L46.5587 13.9583C46.3652 13.8707 46.202 13.7389 46.0617 13.5429L45.2486 14.125L44.4355 14.7071C44.7724 15.1778 45.2077 15.5421 45.7339 15.7803L46.1463 14.8693ZM45.2486 14.125L46.0661 13.549C45.9763 13.4216 45.8963 13.2159 45.8963 12.8636H44.8963H43.8963C43.8963 13.5265 44.0512 14.1617 44.4311 14.701L45.2486 14.125ZM44.8963 12.8636H45.8963V4.18182H44.8963H43.8963V12.8636H44.8963ZM51.6463 15V16H52.6463V15H51.6463ZM50.3054 15H49.3054V16H50.3054V15ZM50.3054 3.36364V2.36364H49.3054V3.36364H50.3054ZM51.6463 3.36364H52.6463V2.36364H51.6463V3.36364ZM51.6463 7.63636H50.6463V8.63636H51.6463V7.63636ZM51.7599 7.63636V8.63636H52.4043L52.6706 8.04959L51.7599 7.63636ZM52.6804 6.5625L53.2243 7.40166L53.2262 7.40042L52.6804 6.5625ZM55.8906 6.51705L55.4196 7.39921L55.4255 7.40229L55.8906 6.51705ZM56.9304 7.60227L56.0373 8.05227L56.0416 8.06056L56.9304 7.60227ZM57.3054 15V16H58.3054V15H57.3054ZM55.9645 15H54.9645V16H55.9645V15ZM55.4247 7.9375L54.6927 8.61882L54.6997 8.62625L55.4247 7.9375ZM52.7599 7.64205L52.2898 6.75942L52.2858 6.76157L52.7599 7.64205ZM51.9418 8.45455L51.0707 7.96339L51.0667 7.97048L51.9418 8.45455ZM51.6463 9.75H50.6463V15H51.6463H52.6463V9.75H51.6463ZM51.6463 15V14H50.3054V15V16H51.6463V15ZM50.3054 15H51.3054V3.36364H50.3054H49.3054V15H50.3054ZM50.3054 3.36364V4.36364H51.6463V3.36364V2.36364H50.3054V3.36364ZM51.6463 3.36364H50.6463V7.63636H51.6463H52.6463V3.36364H51.6463ZM51.6463 7.63636V8.63636H51.7599V7.63636V6.63636H51.6463V7.63636ZM51.7599 7.63636L52.6706 8.04959C52.7974 7.77011 52.9782 7.56113 53.2243 7.40165L52.6804 6.5625L52.1365 5.72335C51.5644 6.09417 51.1316 6.6011 50.8493 7.22314L51.7599 7.63636ZM52.6804 6.5625L53.2262 7.40042C53.4247 7.27109 53.7633 7.15909 54.3281 7.15909V6.15909V5.15909C53.5218 5.15909 52.7618 5.31603 52.1346 5.72458L52.6804 6.5625ZM54.3281 6.15909V7.15909C54.7871 7.15909 55.1409 7.25036 55.4197 7.39919L55.8906 6.51705L56.3616 5.6349C55.7464 5.30646 55.0585 5.15909 54.3281 5.15909V6.15909ZM55.8906 6.51705L55.4255 7.40229C55.6723 7.53198 55.8767 7.73334 56.0374 8.05225L56.9304 7.60227L57.8234 7.15229C57.4917 6.49393 57.0029 5.97181 56.3558 5.6318L55.8906 6.51705ZM56.9304 7.60227L56.0416 8.06056C56.1964 8.36071 56.3054 8.80734 56.3054 9.45455H57.3054H58.3054C58.3054 8.60175 58.1644 7.81353 57.8192 7.14398L56.9304 7.60227ZM57.3054 9.45455H56.3054V15H57.3054H58.3054V9.45455H57.3054ZM57.3054 15V14H55.9645V15V16H57.3054V15ZM55.9645 15H56.9645V9.54545H55.9645H54.9645V15H55.9645ZM55.9645 9.54545H56.9645C56.9645 8.68194 56.7376 7.86757 56.1497 7.24875L55.4247 7.9375L54.6997 8.62625C54.8315 8.76501 54.9645 9.0226 54.9645 9.54545H55.9645ZM55.4247 7.9375L56.1567 7.25622C55.5724 6.6284 54.7889 6.36364 53.9418 6.36364V7.36364V8.36364C54.3597 8.36364 54.5649 8.48145 54.6927 8.61878L55.4247 7.9375ZM53.9418 7.36364V6.36364C53.3572 6.36364 52.7988 6.48836 52.2899 6.75943L52.7599 7.64205L53.23 8.52466C53.4181 8.42451 53.6475 8.36364 53.9418 8.36364V7.36364ZM52.7599 7.64205L52.2858 6.76157C51.7671 7.04088 51.36 7.45028 51.0707 7.9634L51.9418 8.45455L52.8128 8.94569C52.925 8.74669 53.0634 8.61442 53.234 8.52252L52.7599 7.64205ZM51.9418 8.45455L51.0667 7.97048C50.7699 8.50706 50.6463 9.11436 50.6463 9.75H51.6463H52.6463C52.6463 9.37049 52.7197 9.11415 52.8168 8.93861L51.9418 8.45455ZM65.2926 5.23295L64.3378 4.9357L64.3372 4.9376L65.2926 5.23295ZM66.8949 1.90909V0.90909H66.3679L66.07 1.34374L66.8949 1.90909ZM68.0767 1.90909L68.8854 2.49726L70.0405 0.90909H68.0767V1.90909ZM67.3097 3.29545L66.3925 2.89696L66.3912 2.9L67.3097 3.29545ZM66.6903 5.09659L67.655 5.36018L67.6554 5.35876L66.6903 5.09659ZM66.2699 7.11932L65.2805 6.97413L65.2797 6.9794L66.2699 7.11932ZM66.3835 11.9261L65.4007 12.1107L66.3835 11.9261ZM67.0881 14.5114L68.0255 14.1632V14.1632L67.0881 14.5114ZM68.0767 16.4545V17.4545H70.0405L68.8854 15.8664L68.0767 16.4545ZM66.8949 16.4545L66.07 17.0199L66.3679 17.4545H66.8949V16.4545ZM65.2926 13.1364L64.337 13.4309L64.3381 13.4345L65.2926 13.1364ZM64.7358 9.18182H65.7358C65.7358 7.83644 65.9102 6.62115 66.248 5.52831L65.2926 5.23295L64.3372 4.9376C63.9327 6.24627 63.7358 7.66356 63.7358 9.18182H64.7358ZM65.2926 5.23295L66.2474 5.5302C66.5936 4.41823 67.0846 3.40106 67.7197 2.47444L66.8949 1.90909L66.07 1.34374C65.3188 2.43985 64.7416 3.63859 64.3378 4.9357L65.2926 5.23295ZM66.8949 1.90909V2.90909H68.0767V1.90909V0.90909H66.8949V1.90909ZM68.0767 1.90909L67.268 1.32092C66.942 1.76919 66.6523 2.29901 66.3925 2.89696L67.3097 3.29545L68.2268 3.69395C68.4443 3.19341 68.666 2.79899 68.8854 2.49726L68.0767 1.90909ZM67.3097 3.29545L66.3912 2.9C66.1353 3.49435 65.914 4.13996 65.7253 4.83442L66.6903 5.09659L67.6554 5.35876C67.8228 4.74262 68.0143 4.18747 68.2281 3.69091L67.3097 3.29545ZM66.6903 5.09659L65.7257 4.833C65.5366 5.52507 65.3884 6.23893 65.2805 6.97413L66.2699 7.11932L67.2593 7.2645C67.356 6.60576 67.488 5.97114 67.655 5.36018L66.6903 5.09659ZM66.2699 7.11932L65.2797 6.9794C65.1749 7.72097 65.1222 8.45523 65.1222 9.18182H66.1222H67.1222C67.1222 8.55234 67.1679 7.91161 67.2601 7.25923L66.2699 7.11932ZM66.1222 9.18182H65.1222C65.1222 10.1481 65.2156 11.1247 65.4007 12.1107L66.3835 11.9261L67.3663 11.7416C67.203 10.8716 67.1222 10.0186 67.1222 9.18182H66.1222ZM66.3835 11.9261L65.4007 12.1107C65.5843 13.0883 65.8334 14.0054 66.1506 14.8596L67.0881 14.5114L68.0255 14.1632C67.7519 13.4264 67.5313 12.62 67.3663 11.7416L66.3835 11.9261ZM67.0881 14.5114L66.1506 14.8595C66.4669 15.7111 66.835 16.4473 67.268 17.0427L68.0767 16.4545L68.8854 15.8664C68.5912 15.4618 68.3001 14.9025 68.0255 14.1632L67.0881 14.5114ZM68.0767 16.4545V15.4545H66.8949V16.4545V17.4545H68.0767V16.4545ZM66.8949 16.4545L67.7197 15.8892C67.0843 14.9621 66.5932 13.9465 66.2471 12.8383L65.2926 13.1364L64.3381 13.4345C64.742 14.7278 65.3191 15.9243 66.07 17.0199L66.8949 16.4545ZM65.2926 13.1364L66.2483 12.8419C65.9101 11.7447 65.7358 10.5271 65.7358 9.18182H64.7358H63.7358C63.7358 10.7001 63.9327 12.119 64.337 13.4309L65.2926 13.1364ZM79.6009 7V8H80.7936L80.5855 6.8255L79.6009 7ZM78.1918 7L77.2123 7.20139L77.3764 8H78.1918V7ZM77.7543 5.93182L76.9222 6.48654L76.927 6.49357L77.7543 5.93182ZM77.0043 5.15909L76.4161 5.96783L76.422 5.97213L76.428 5.97635L77.0043 5.15909ZM76.0327 4.68182L75.7472 5.6402L76.0327 4.68182ZM73.0043 5.05682L72.4758 4.20787L72.4732 4.20946L73.0043 5.05682ZM71.6463 6.63068L70.747 6.19332L70.7451 6.19731L71.6463 6.63068ZM71.6463 11.733L70.7451 12.1663L70.747 12.1703L71.6463 11.733ZM73.0043 13.3068L72.4732 14.1542L72.4758 14.1558L73.0043 13.3068ZM76.0327 13.6818L75.7472 12.7234L76.0327 13.6818ZM77.0043 13.2102L77.5855 14.024L77.5875 14.0226L77.0043 13.2102ZM77.7543 12.4318L76.9238 11.8748L76.9222 11.8771L77.7543 12.4318ZM78.1918 11.3636V10.3636H77.378L77.2126 11.1604L78.1918 11.3636ZM79.6009 11.3636L80.5853 11.5392L80.795 10.3636H79.6009V11.3636ZM79.0213 12.9602L78.1626 12.4478V12.4478L79.0213 12.9602ZM77.9759 14.1591L78.5918 14.9469L78.5962 14.9434L77.9759 14.1591ZM76.5724 14.9034L76.2604 13.9533L76.2583 13.954L76.5724 14.9034ZM72.2713 14.4318L71.7398 15.2789L72.2713 14.4318ZM70.4474 12.3636L71.3434 11.9195L70.4474 12.3636ZM70.4474 6L69.5515 5.55583L70.4474 6ZM76.5724 3.46023L76.2583 4.40961L76.2604 4.41029L76.5724 3.46023ZM77.9759 4.21023L77.3555 4.99457L77.3599 4.99803L77.9759 4.21023ZM79.0213 5.40341L78.1626 5.91587L78.1644 5.91893L79.0213 5.40341ZM79.6009 7V6H78.1918V7V8H79.6009V7ZM78.1918 7L79.1713 6.79861C79.0645 6.27926 78.872 5.79775 78.5816 5.37007L77.7543 5.93182L76.927 6.49357C77.0532 6.67953 77.1524 6.91013 77.2123 7.20139L78.1918 7ZM77.7543 5.93182L78.5863 5.37712C78.3148 4.96986 77.9787 4.62261 77.5805 4.34183L77.0043 5.15909L76.428 5.97635C76.6207 6.11223 76.7846 6.28014 76.9222 6.48652L77.7543 5.93182ZM77.0043 5.15909L77.5924 4.35035C77.2063 4.06954 76.7795 3.86087 76.3181 3.72343L76.0327 4.68182L75.7472 5.6402C75.9979 5.71489 76.2189 5.8244 76.4161 5.96783L77.0043 5.15909ZM76.0327 4.68182L76.3181 3.72343C75.8658 3.58869 75.3982 3.52273 74.919 3.52273V4.52273V5.52273C75.2126 5.52273 75.4874 5.56283 75.7472 5.6402L76.0327 4.68182ZM74.919 4.52273V3.52273C74.0366 3.52273 73.2138 3.74846 72.4758 4.20787L73.0043 5.05682L73.5327 5.90576C73.9387 5.65306 74.3923 5.52273 74.919 5.52273V4.52273ZM73.0043 5.05682L72.4732 4.20946C71.7237 4.67917 71.1536 5.35741 70.747 6.19332L71.6463 6.63068L72.5456 7.06804C72.8133 6.51759 73.1485 6.14659 73.5353 5.90418L73.0043 5.05682ZM71.6463 6.63068L70.7451 6.19731C70.3298 7.06086 70.1463 8.06882 70.1463 9.18182H71.1463H72.1463C72.1463 8.27967 72.2961 7.58687 72.5475 7.06405L71.6463 6.63068ZM71.1463 9.18182H70.1463C70.1463 10.2948 70.3298 11.3028 70.7451 12.1663L71.6463 11.733L72.5475 11.2996C72.2961 10.7768 72.1463 10.084 72.1463 9.18182H71.1463ZM71.6463 11.733L70.747 12.1703C71.1536 13.0062 71.7237 13.6845 72.4732 14.1542L73.0043 13.3068L73.5353 12.4595C73.1485 12.217 72.8133 11.8461 72.5456 11.2956L71.6463 11.733ZM73.0043 13.3068L72.4758 14.1558C73.2138 14.6152 74.0366 14.8409 74.919 14.8409V13.8409V12.8409C74.3923 12.8409 73.9387 12.7106 73.5327 12.4579L73.0043 13.3068ZM74.919 13.8409V14.8409C75.3982 14.8409 75.8658 14.7749 76.3181 14.6402L76.0327 13.6818L75.7472 12.7234C75.4874 12.8008 75.2126 12.8409 74.919 12.8409V13.8409ZM76.0327 13.6818L76.3181 14.6402C76.7762 14.5038 77.2007 14.2989 77.5855 14.024L77.0043 13.2102L76.423 12.3965C76.2245 12.5383 76.0013 12.6478 75.7472 12.7234L76.0327 13.6818ZM77.0043 13.2102L77.5875 14.0226C77.9821 13.7392 78.3159 13.3921 78.5863 12.9865L77.7543 12.4318L76.9222 11.8771C76.7835 12.0852 76.6174 12.257 76.4211 12.3979L77.0043 13.2102ZM77.7543 12.4318L78.5848 12.9889C78.8717 12.5611 79.0639 12.0826 79.1709 11.5669L78.1918 11.3636L77.2126 11.1604C77.153 11.4477 77.0535 11.6813 76.9238 11.8748L77.7543 12.4318ZM78.1918 11.3636V12.3636H79.6009V11.3636V10.3636H78.1918V11.3636ZM79.6009 11.3636L78.6164 11.1881C78.5293 11.6762 78.3748 12.0921 78.1626 12.4478L79.0213 12.9602L79.88 13.4727C80.2284 12.8889 80.4603 12.2405 80.5853 11.5392L79.6009 11.3636ZM79.0213 12.9602L78.1626 12.4478C77.9427 12.8163 77.674 13.1228 77.3555 13.3748L77.9759 14.1591L78.5962 14.9434C79.111 14.5363 79.5393 14.0436 79.88 13.4727L79.0213 12.9602ZM77.9759 14.1591L77.3599 13.3713C77.0374 13.6235 76.6731 13.8178 76.2604 13.9533L76.5724 14.9034L76.8845 15.8535C77.5097 15.6481 78.081 15.3462 78.5918 14.9469L77.9759 14.1591ZM76.5724 14.9034L76.2583 13.954C75.8525 14.0883 75.4082 14.1591 74.919 14.1591V15.1591V16.1591C75.6042 16.1591 76.2621 16.0594 76.8866 15.8528L76.5724 14.9034ZM74.919 15.1591V14.1591C74.0975 14.1591 73.4023 13.9609 72.8028 13.5848L72.2713 14.4318L71.7398 15.2789C72.6857 15.8724 73.7558 16.1591 74.919 16.1591V15.1591ZM72.2713 14.4318L72.8028 13.5848C72.2009 13.2071 71.7125 12.6641 71.3434 11.9195L70.4474 12.3636L69.5515 12.8078C70.0687 13.8511 70.7963 14.6868 71.7398 15.2789L72.2713 14.4318ZM70.4474 12.3636L71.3434 11.9195C70.9826 11.1917 70.7827 10.2898 70.7827 9.18182H69.7827H68.7827C68.7827 10.5284 69.0259 11.7477 69.5515 12.8078L70.4474 12.3636ZM69.7827 9.18182H70.7827C70.7827 8.07385 70.9826 7.17194 71.3434 6.44417L70.4474 6L69.5515 5.55583C69.0259 6.61594 68.7827 7.83524 68.7827 9.18182H69.7827ZM70.4474 6L71.3434 6.44417C71.7125 5.69955 72.2009 5.15654 72.8028 4.77888L72.2713 3.93182L71.7398 3.08475C70.7963 3.67679 70.0687 4.51257 69.5515 5.55583L70.4474 6ZM72.2713 3.93182L72.8028 4.77888C73.4023 4.40271 74.0975 4.20455 74.919 4.20455V3.20455V2.20455C73.7558 2.20455 72.6857 2.49123 71.7398 3.08475L72.2713 3.93182ZM74.919 3.20455V4.20455C75.4082 4.20455 75.8525 4.27532 76.2583 4.40961L76.5724 3.46023L76.8866 2.51085C76.2621 2.30422 75.6042 2.20455 74.919 2.20455V3.20455ZM76.5724 3.46023L76.2604 4.41029C76.6708 4.5451 77.0337 4.74001 77.3555 4.99456L77.9759 4.21023L78.5962 3.42589C78.0847 3.02135 77.5119 2.71626 76.8845 2.51017L76.5724 3.46023ZM77.9759 4.21023L77.3599 4.99803C77.676 5.24518 77.9433 5.54846 78.1626 5.91587L79.0213 5.40341L79.88 4.89095C79.5387 4.31896 79.109 3.82679 78.5918 3.42242L77.9759 4.21023ZM79.0213 5.40341L78.1644 5.91893C78.3746 6.2683 78.529 6.68241 78.6162 7.1745L79.6009 7L80.5855 6.8255C80.4606 6.12062 80.2286 5.47033 79.8782 4.88789L79.0213 5.40341ZM86.696 8.55682H87.696V7.55682H86.696V8.55682ZM86.696 9.80682V10.8068H87.696V9.80682H86.696ZM81.6051 9.80682H80.6051V10.8068H81.6051V9.80682ZM81.6051 8.55682V7.55682H80.6051V8.55682H81.6051ZM86.696 8.55682H85.696V9.80682H86.696H87.696V8.55682H86.696ZM86.696 9.80682V8.80682H81.6051V9.80682V10.8068H86.696V9.80682ZM81.6051 9.80682H82.6051V8.55682H81.6051H80.6051V9.80682H81.6051ZM81.6051 8.55682V9.55682H86.696V8.55682V7.55682H81.6051V8.55682ZM93.1236 3.36364H94.1236V2.36364H93.1236V3.36364ZM93.1236 15V16H94.1236V15H93.1236ZM91.7145 15H90.7145V16H91.7145V15ZM91.7145 4.84091H92.7145V3.84091H91.7145V4.84091ZM91.6463 4.84091V3.84091H91.3445L91.0931 4.00783L91.6463 4.84091ZM88.8054 6.72727H87.8054V8.59164L89.3586 7.56035L88.8054 6.72727ZM88.8054 5.29545L88.2522 4.4624L87.8054 4.75911V5.29545H88.8054ZM91.7145 3.36364V2.36364H91.4127L91.1613 2.53059L91.7145 3.36364ZM93.1236 3.36364H92.1236V15H93.1236H94.1236V3.36364H93.1236ZM93.1236 15V14H91.7145V15V16H93.1236V15ZM91.7145 15H92.7145V4.84091H91.7145H90.7145V15H91.7145ZM91.7145 4.84091V3.84091H91.6463V4.84091V5.84091H91.7145V4.84091ZM91.6463 4.84091L91.0931 4.00783L88.2522 5.8942L88.8054 6.72727L89.3586 7.56035L92.1995 5.67398L91.6463 4.84091ZM88.8054 6.72727H89.8054V5.29545H88.8054H87.8054V6.72727H88.8054ZM88.8054 5.29545L89.3586 6.1285L92.2677 4.19669L91.7145 3.36364L91.1613 2.53059L88.2522 4.4624L88.8054 5.29545ZM91.7145 3.36364V4.36364H93.1236V3.36364V2.36364H91.7145V3.36364ZM98.3963 14.7727L97.9924 15.6875L97.9946 15.6885L98.3963 14.7727ZM97.0043 13.6989L96.1995 14.2925L96.2051 14.2999L97.0043 13.6989ZM96.4474 12.0909V11.0909H95.3965L95.4487 12.1405L96.4474 12.0909ZM97.8793 12.0909L98.876 12.0104L98.8017 11.0909H97.8793V12.0909ZM98.2656 13.0625L97.4974 13.7027L97.5018 13.708L98.2656 13.0625ZM99.1577 13.6875L98.7846 14.6153L99.1577 13.6875ZM102.618 12.9205L101.801 12.343L102.618 12.9205ZM102.629 10.7102L101.788 11.2515L101.791 11.2559L102.629 10.7102ZM101.697 9.9375L101.284 10.8482L101.697 9.9375ZM99.2656 9.65909H98.2656V10.6591H99.2656V9.65909ZM99.2656 8.40909V7.40909H98.2656V8.40909H99.2656ZM101.413 8.15909L100.986 7.25515L100.982 7.25696L101.413 8.15909ZM102.237 7.45455L101.404 6.90223L101.399 6.90956L102.237 7.45455ZM102.277 5.35795L103.135 4.8451V4.8451L102.277 5.35795ZM101.538 4.67614L101.078 5.56406L101.083 5.56628L101.538 4.67614ZM99.2884 4.65341L99.6666 5.57913L99.6716 5.57707L99.2884 4.65341ZM98.4247 5.28409L99.1982 5.91793L99.2025 5.91268L98.4247 5.28409ZM98.0611 6.27273V7.27273H99.0133L99.0599 6.32169L98.0611 6.27273ZM96.6974 6.27273L95.6981 6.23549L95.6595 7.27273H96.6974V6.27273ZM97.2486 4.67045L98.0478 5.27151L98.0502 5.26835L97.2486 4.67045ZM98.6009 3.59091L98.1833 2.68223L98.181 2.68331L98.6009 3.59091ZM102.3 3.64205L101.807 4.51226L101.812 4.51499L102.3 3.64205ZM103.487 4.78409L102.624 5.28839V5.28839L103.487 4.78409ZM103.385 7.99432L102.583 7.39641L102.58 7.40067L103.385 7.99432ZM101.993 8.95455L101.703 7.99757L100.993 8.21281V8.95455H101.993ZM101.993 9.04545H100.993V9.89402L101.83 10.0321L101.993 9.04545ZM103.714 9.98295L102.941 10.6168L102.943 10.6197L103.714 9.98295ZM103.817 13.5455L102.991 12.9808L102.991 12.9821L103.817 13.5455ZM102.419 14.7273L102.857 15.6263L102.419 14.7273ZM100.402 15.1591V14.1591C99.7671 14.1591 99.2389 14.0504 98.7981 13.857L98.3963 14.7727L97.9946 15.6885C98.728 16.0102 99.5369 16.1591 100.402 16.1591V15.1591ZM98.3963 14.7727L98.8002 13.8579C98.3554 13.6615 98.0343 13.4047 97.8035 13.0978L97.0043 13.6989L96.2051 14.2999C96.6637 14.9097 97.2705 15.3688 97.9924 15.6875L98.3963 14.7727ZM97.0043 13.6989L97.809 13.1052C97.5924 12.8116 97.4674 12.4677 97.4462 12.0413L96.4474 12.0909L95.4487 12.1405C95.4881 12.9338 95.7343 13.6619 96.1995 14.2925L97.0043 13.6989ZM96.4474 12.0909V13.0909H97.8793V12.0909V11.0909H96.4474V12.0909ZM97.8793 12.0909L96.8825 12.1715C96.9284 12.7391 97.1299 13.2617 97.4974 13.7027L98.2656 13.0625L99.0338 12.4223C98.9468 12.3178 98.8907 12.1927 98.876 12.0104L97.8793 12.0909ZM98.2656 13.0625L97.5018 13.708C97.8469 14.1163 98.285 14.4144 98.7846 14.6153L99.1577 13.6875L99.5307 12.7597C99.2955 12.6651 99.1389 12.5466 99.0294 12.417L98.2656 13.0625ZM99.1577 13.6875L98.7846 14.6153C99.2849 14.8165 99.8208 14.9091 100.379 14.9091V13.9091V12.9091C100.044 12.9091 99.7653 12.854 99.5307 12.7597L99.1577 13.6875ZM100.379 13.9091V14.9091C100.996 14.9091 101.583 14.8014 102.12 14.5593L101.709 13.6477L101.298 12.7361C101.062 12.8426 100.763 12.9091 100.379 12.9091V13.9091ZM101.709 13.6477L102.12 14.5593C102.65 14.3204 103.1 13.9701 103.434 13.4979L102.618 12.9205L101.801 12.343C101.696 12.492 101.541 12.6266 101.298 12.7361L101.709 13.6477ZM102.618 12.9205L103.434 13.4979C103.783 13.0055 103.947 12.4404 103.947 11.8409H102.947H101.947C101.947 12.0596 101.893 12.2142 101.801 12.343L102.618 12.9205ZM102.947 11.8409H103.947C103.947 11.2395 103.796 10.6689 103.467 10.1646L102.629 10.7102L101.791 11.2559C101.887 11.4031 101.947 11.5863 101.947 11.8409H102.947ZM102.629 10.7102L103.47 10.169C103.139 9.65508 102.669 9.27999 102.111 9.02684L101.697 9.9375L101.284 10.8482C101.545 10.9662 101.695 11.1063 101.788 11.2515L102.629 10.7102ZM101.697 9.9375L102.111 9.02684C101.538 8.76689 100.888 8.65909 100.197 8.65909V9.65909V10.6591C100.689 10.6591 101.039 10.7369 101.284 10.8482L101.697 9.9375ZM100.197 9.65909V8.65909H99.2656V9.65909V10.6591H100.197V9.65909ZM99.2656 9.65909H100.266V8.40909H99.2656H98.2656V9.65909H99.2656ZM99.2656 8.40909V9.40909H100.197V8.40909V7.40909H99.2656V8.40909ZM100.197 8.40909V9.40909C100.78 9.40909 101.338 9.30374 101.845 9.06122L101.413 8.15909L100.982 7.25696C100.792 7.34777 100.539 7.40909 100.197 7.40909V8.40909ZM101.413 8.15909L101.841 9.06303C102.347 8.82354 102.77 8.47014 103.076 7.99953L102.237 7.45455L101.399 6.90956C101.311 7.04501 101.184 7.16131 100.986 7.25516L101.413 8.15909ZM102.237 7.45455L103.071 8.00684C103.393 7.52002 103.538 6.96642 103.538 6.38636H102.538H101.538C101.538 6.62449 101.483 6.78301 101.404 6.90225L102.237 7.45455ZM102.538 6.38636H103.538C103.538 5.84106 103.416 5.3151 103.135 4.8451L102.277 5.35795L101.419 5.87081C101.486 5.98414 101.538 6.14379 101.538 6.38636H102.538ZM102.277 5.35795L103.135 4.8451C102.86 4.3838 102.47 4.02969 101.994 3.78599L101.538 4.67614L101.083 5.56628C101.243 5.64834 101.346 5.74877 101.419 5.87081L102.277 5.35795ZM101.538 4.67614L101.998 3.78822C101.515 3.53784 100.98 3.43182 100.425 3.43182V4.43182V5.43182C100.726 5.43182 100.933 5.48867 101.078 5.56405L101.538 4.67614ZM100.425 4.43182V3.43182C99.8973 3.43182 99.3877 3.52953 98.9051 3.72975L99.2884 4.65341L99.6716 5.57707C99.9011 5.48183 100.149 5.43182 100.425 5.43182V4.43182ZM99.2884 4.65341L98.9101 3.7277C98.4131 3.93079 97.9839 4.23866 97.647 4.65551L98.4247 5.28409L99.2025 5.91268C99.3125 5.77649 99.4591 5.6639 99.6666 5.57911L99.2884 4.65341ZM98.4247 5.28409L97.6512 4.65027C97.2786 5.10497 97.0906 5.64526 97.0623 6.22377L98.0611 6.27273L99.0599 6.32169C99.0694 6.12747 99.1238 6.00867 99.1982 5.91791L98.4247 5.28409ZM98.0611 6.27273V5.27273H96.6974V6.27273V7.27273H98.0611V6.27273ZM96.6974 6.27273L97.6967 6.30997C97.7124 5.89026 97.8338 5.55602 98.0478 5.27151L97.2486 4.67045L96.4494 4.0694C95.9739 4.70156 95.728 5.4355 95.6981 6.23549L96.6974 6.27273ZM97.2486 4.67045L98.0502 5.26835C98.289 4.94817 98.6049 4.69084 99.0207 4.49851L98.6009 3.59091L98.181 2.68331C97.4832 3.00613 96.8976 3.46849 96.447 4.07256L97.2486 4.67045ZM98.6009 3.59091L99.0184 4.49959C99.437 4.30725 99.9084 4.20455 100.447 4.20455V3.20455V2.20455C99.6455 2.20455 98.886 2.35941 98.1833 2.68223L98.6009 3.59091ZM100.447 3.20455V4.20455C101.032 4.20455 101.471 4.32223 101.807 4.51225L102.3 3.64205L102.792 2.77184C102.098 2.37852 101.303 2.20455 100.447 2.20455V3.20455ZM102.3 3.64205L101.812 4.51499C102.183 4.72262 102.444 4.98087 102.624 5.28839L103.487 4.78409L104.351 4.27979C103.977 3.64034 103.446 3.13723 102.788 2.7691L102.3 3.64205ZM103.487 4.78409L102.624 5.28839C102.811 5.60857 102.902 5.94585 102.902 6.31818H103.902H104.902C104.902 5.59203 104.717 4.90659 104.351 4.27979L103.487 4.78409ZM103.902 6.31818H102.902C102.902 6.78878 102.782 7.13015 102.583 7.39642L103.385 7.99432L104.187 8.59221C104.677 7.93424 104.902 7.15819 104.902 6.31818H103.902ZM103.385 7.99432L102.58 7.40067C102.376 7.67722 102.099 7.87752 101.703 7.99757L101.993 8.95455L102.283 9.91152C103.061 9.67551 103.712 9.23566 104.19 8.58797L103.385 7.99432ZM101.993 8.95455H100.993V9.04545H101.993H102.993V8.95455H101.993ZM101.993 9.04545L101.83 10.0321C102.362 10.1198 102.704 10.3277 102.941 10.6168L103.714 9.98295L104.488 9.34908C103.899 8.63058 103.094 8.21349 102.156 8.05879L101.993 9.04545ZM103.714 9.98295L102.943 10.6197C103.188 10.9158 103.334 11.3005 103.334 11.8409H104.334H105.334C105.334 10.9041 105.067 10.0501 104.486 9.34622L103.714 9.98295ZM104.334 11.8409H103.334C103.334 12.2797 103.218 12.6496 102.991 12.9808L103.817 13.5455L104.642 14.1101C105.105 13.4337 105.334 12.6673 105.334 11.8409H104.334ZM103.817 13.5455L102.991 12.9821C102.756 13.3261 102.429 13.6098 101.981 13.8283L102.419 14.7273L102.857 15.6263C103.59 15.2689 104.196 14.7648 104.643 14.1088L103.817 13.5455ZM102.419 14.7273L101.981 13.8283C101.545 14.0406 101.026 14.1591 100.402 14.1591V15.1591V16.1591C101.285 16.1591 102.111 15.9897 102.857 15.6263L102.419 14.7273ZM107.021 15L106.129 14.5489L105.395 16H107.021V15ZM112.226 4.70455L113.118 5.15569L113.226 4.94294V4.70455H112.226ZM112.226 4.61364H113.226V3.61364H112.226V4.61364ZM106.226 4.61364H105.226V5.61364H106.226V4.61364ZM106.226 3.36364V2.36364H105.226V3.36364H106.226ZM113.68 3.36364H114.68V2.36364H113.68V3.36364ZM113.68 4.68182L114.574 5.13061L114.68 4.91882V4.68182H113.68ZM108.499 15V16H109.115L109.392 15.4488L108.499 15ZM107.021 15L107.914 15.4511L113.118 5.15569L112.226 4.70455L111.333 4.2534L106.129 14.5489L107.021 15ZM112.226 4.70455H113.226V4.61364H112.226H111.226V4.70455H112.226ZM112.226 4.61364V3.61364H106.226V4.61364V5.61364H112.226V4.61364ZM106.226 4.61364H107.226V3.36364H106.226H105.226V4.61364H106.226ZM106.226 3.36364V4.36364H113.68V3.36364V2.36364H106.226V3.36364ZM113.68 3.36364H112.68V4.68182H113.68H114.68V3.36364H113.68ZM113.68 4.68182L112.787 4.23303L107.605 14.5512L108.499 15L109.392 15.4488L114.574 5.13061L113.68 4.68182ZM108.499 15V14H107.021V15V16H108.499V15ZM118.122 13.1364L117.167 12.8391L117.167 12.841L118.122 13.1364ZM116.526 16.4545V17.4545H117.053L117.35 17.0199L116.526 16.4545ZM115.344 16.4545L114.535 15.8664L113.38 17.4545H115.344V16.4545ZM116.105 15.0682L115.189 14.6673L115.186 14.675L116.105 15.0682ZM116.73 13.2727L117.695 13.5363L117.695 13.5349L116.73 13.2727ZM117.145 11.2443L116.155 11.0999L116.155 11.1044L117.145 11.2443ZM117.037 6.4375L118.02 6.25297L117.037 6.4375ZM116.332 3.85227L117.27 3.50409V3.50409L116.332 3.85227ZM115.344 1.90909V0.90909H113.38L114.535 2.49726L115.344 1.90909ZM116.526 1.90909L117.35 1.34374L117.053 0.90909H116.526V1.90909ZM118.122 5.23295L117.167 5.52746L117.168 5.53106L118.122 5.23295ZM118.685 9.18182H117.685C117.685 10.5262 117.509 11.7428 117.167 12.8391L118.122 13.1364L119.077 13.4336C119.486 12.1208 119.685 10.7011 119.685 9.18182H118.685ZM118.122 13.1364L117.167 12.841C116.825 13.9481 116.336 14.9628 115.701 15.8892L116.526 16.4545L117.35 17.0199C118.102 15.9235 118.677 14.7261 119.078 13.4317L118.122 13.1364ZM116.526 16.4545V15.4545H115.344V16.4545V17.4545H116.526V16.4545ZM115.344 16.4545L116.152 17.0427C116.48 16.5926 116.768 16.0609 117.025 15.4613L116.105 15.0682L115.186 14.675C114.972 15.174 114.753 15.5665 114.535 15.8664L115.344 16.4545ZM116.105 15.0682L117.021 15.469C117.282 14.8736 117.506 14.2286 117.695 13.5363L116.73 13.2727L115.765 13.0091C115.599 13.6199 115.406 14.1719 115.189 14.6674L116.105 15.0682ZM116.73 13.2727L117.695 13.5349C117.884 12.838 118.031 12.1209 118.135 11.3842L117.145 11.2443L116.155 11.1044C116.062 11.7616 115.932 12.3969 115.765 13.0106L116.73 13.2727ZM117.145 11.2443L118.134 11.3887C118.243 10.6425 118.298 9.90674 118.298 9.18182H117.298H116.298C116.298 9.80538 116.251 10.4446 116.155 11.0999L117.145 11.2443ZM117.298 9.18182H118.298C118.298 8.21554 118.205 7.23898 118.02 6.25297L117.037 6.4375L116.054 6.62203C116.217 7.49208 116.298 8.34506 116.298 9.18182H117.298ZM117.037 6.4375L118.02 6.25297C117.836 5.27534 117.587 4.35826 117.27 3.50409L116.332 3.85227L115.395 4.20046C115.669 4.93719 115.889 5.7436 116.054 6.62203L117.037 6.4375ZM116.332 3.85227L117.27 3.50409C116.954 2.6525 116.585 1.91631 116.152 1.32092L115.344 1.90909L114.535 2.49726C114.829 2.90187 115.12 3.46114 115.395 4.20046L116.332 3.85227ZM115.344 1.90909V2.90909H116.526V1.90909V0.90909H115.344V1.90909ZM116.526 1.90909L115.701 2.47444C116.335 3.40031 116.824 4.41655 117.167 5.52746L118.122 5.23295L119.078 4.93845C118.678 3.64027 118.102 2.4406 117.35 1.34374L116.526 1.90909ZM118.122 5.23295L117.168 5.53106C117.509 6.62303 117.685 7.83737 117.685 9.18182H118.685H119.685C119.685 7.66263 119.486 6.24439 119.077 4.93485L118.122 5.23295Z" fill="#868686" fill-opacity="0.44" mask="url(#path-2-outside-1_202_40)"/>
</svg>
