<svg width="83" height="16" viewBox="0 0 83 16" fill="none" xmlns="http://www.w3.org/2000/svg">
<path d="M7 0C5.14414 0.00207954 3.36489 0.725194 2.0526 2.01071C0.740303 3.29622 0.00212286 5.03915 0 6.85714C0 8.57143 0.915833 10.79 2.45073 12.7857C3.9951 14.7964 5.69552 16 7 16C8.30448 16 10.0049 14.7993 11.5493 12.7857C13.0842 10.7857 14 8.57143 14 6.85714C13.9979 5.03915 13.2597 3.29622 11.9474 2.01071C10.6351 0.725194 8.85586 0.00207954 7 0ZM10.6174 12.1014C9.35083 13.7493 7.8976 14.8571 7 14.8571C6.1024 14.8571 4.64917 13.7493 3.3826 12.1014C2.01615 10.3214 1.16667 8.31214 1.16667 6.85714C1.16667 5.34162 1.78125 3.88817 2.87521 2.81653C3.96917 1.7449 5.4529 1.14286 7 1.14286C8.5471 1.14286 10.0308 1.7449 11.1248 2.81653C12.2188 3.88817 12.8333 5.34162 12.8333 6.85714C12.8333 8.31214 11.9839 10.3214 10.6174 12.1014ZM6.41667 8.57143C6.41667 7.81367 6.10938 7.08694 5.56239 6.55112C5.01541 6.01531 4.27355 5.71429 3.5 5.71429C3.19058 5.71429 2.89383 5.83469 2.67504 6.04902C2.45625 6.26335 2.33333 6.55404 2.33333 6.85714C2.33333 7.6149 2.64062 8.34163 3.18761 8.87745C3.73459 9.41327 4.47645 9.71429 5.25 9.71429C5.55942 9.71429 5.85616 9.59388 6.07496 9.37955C6.29375 9.16522 6.41667 8.87453 6.41667 8.57143ZM3.5 6.85714C3.96413 6.85714 4.40925 7.03775 4.73744 7.35925C5.06563 7.68074 5.25 8.11677 5.25 8.57143C4.78587 8.57143 4.34075 8.39082 4.01256 8.06933C3.68437 7.74784 3.5 7.3118 3.5 6.85714ZM10.5 5.71429C9.72645 5.71429 8.98459 6.01531 8.4376 6.55112C7.89062 7.08694 7.58333 7.81367 7.58333 8.57143C7.58333 8.87453 7.70625 9.16522 7.92504 9.37955C8.14383 9.59388 8.44058 9.71429 8.75 9.71429C9.13302 9.71429 9.51229 9.64038 9.86616 9.4968C10.22 9.35321 10.5416 9.14276 10.8124 8.87745C11.0832 8.61214 11.2981 8.29717 11.4446 7.95052C11.5912 7.60388 11.6667 7.23235 11.6667 6.85714C11.6667 6.55404 11.5437 6.26335 11.325 6.04902C11.1062 5.83469 10.8094 5.71429 10.5 5.71429ZM8.75 8.57143C8.75 8.11677 8.93437 7.68074 9.26256 7.35925C9.59075 7.03775 10.0359 6.85714 10.5 6.85714C10.5 7.3118 10.3156 7.74784 9.98744 8.06933C9.65925 8.39082 9.21413 8.57143 8.75 8.57143ZM8.75 12C8.75 12.1516 8.68854 12.2969 8.57915 12.4041C8.46975 12.5112 8.32138 12.5714 8.16667 12.5714H5.83333C5.67862 12.5714 5.53025 12.5112 5.42085 12.4041C5.31146 12.2969 5.25 12.1516 5.25 12C5.25 11.8484 5.31146 11.7031 5.42085 11.5959C5.53025 11.4888 5.67862 11.4286 5.83333 11.4286H8.16667C8.32138 11.4286 8.46975 11.4888 8.57915 11.5959C8.68854 11.7031 8.75 11.8484 8.75 12Z" fill="white"/>
<mask id="path-2-outside-1_202_35" maskUnits="userSpaceOnUse" x="18" y="1" width="64" height="15" fill="black">
<rect fill="white" x="18" y="1" width="64" height="15"/>
<path d="M19.4091 14V2.36364H20.8182V7.54545H27.0227V2.36364H28.4318V14H27.0227V8.79545H20.8182V14H19.4091ZM36.571 10.4318V5.27273H37.9119V14H36.571V12.5227H36.4801C36.2756 12.9659 35.9574 13.3428 35.5256 13.6534C35.0938 13.9602 34.5483 14.1136 33.8892 14.1136C33.3438 14.1136 32.8589 13.9943 32.4347 13.7557C32.0104 13.5133 31.6771 13.1496 31.4347 12.6648C31.1922 12.1761 31.071 11.5606 31.071 10.8182V5.27273H32.4119V10.7273C32.4119 11.3636 32.59 11.8712 32.946 12.25C33.3059 12.6288 33.7642 12.8182 34.321 12.8182C34.6544 12.8182 34.9934 12.733 35.3381 12.5625C35.6866 12.392 35.9782 12.1307 36.2131 11.7784C36.4517 11.4261 36.571 10.9773 36.571 10.4318ZM40.3679 14V5.27273H41.6634V6.63636H41.777C41.9588 6.17045 42.2524 5.80871 42.6577 5.55114C43.063 5.28977 43.5497 5.15909 44.1179 5.15909C44.6937 5.15909 45.1728 5.28977 45.5554 5.55114C45.9418 5.80871 46.2429 6.17045 46.4588 6.63636H46.5497C46.7732 6.18561 47.1084 5.82765 47.5554 5.5625C48.0024 5.29356 48.5384 5.15909 49.1634 5.15909C49.9437 5.15909 50.5819 5.40341 51.0781 5.89205C51.5743 6.37689 51.8224 7.13258 51.8224 8.15909V14H50.4815V8.15909C50.4815 7.51515 50.3054 7.05492 49.9531 6.77841C49.6009 6.50189 49.1861 6.36364 48.7088 6.36364C48.0952 6.36364 47.6198 6.54924 47.2827 6.92045C46.9455 7.28788 46.777 7.75379 46.777 8.31818V14H45.4134V8.02273C45.4134 7.52652 45.2524 7.12689 44.9304 6.82386C44.6084 6.51705 44.1937 6.36364 43.6861 6.36364C43.3376 6.36364 43.0118 6.45644 42.7088 6.64205C42.4096 6.82765 42.1671 7.08523 41.9815 7.41477C41.7997 7.74053 41.7088 8.11742 41.7088 8.54545V14H40.3679ZM56.8423 14.2045C56.2893 14.2045 55.7874 14.1004 55.3366 13.892C54.8859 13.6799 54.5279 13.375 54.2628 12.9773C53.9976 12.5758 53.8651 12.0909 53.8651 11.5227C53.8651 11.0227 53.9635 10.6174 54.1605 10.3068C54.3575 9.99242 54.6207 9.74621 54.9503 9.56818C55.2798 9.39015 55.6435 9.25758 56.0412 9.17045C56.4427 9.07955 56.8461 9.00758 57.2514 8.95455C57.7817 8.88636 58.2116 8.83523 58.5412 8.80114C58.8745 8.76326 59.117 8.70076 59.2685 8.61364C59.4238 8.52652 59.5014 8.375 59.5014 8.15909V8.11364C59.5014 7.55303 59.348 7.11742 59.0412 6.80682C58.7382 6.49621 58.2779 6.34091 57.6605 6.34091C57.0204 6.34091 56.5185 6.48106 56.1548 6.76136C55.7912 7.04167 55.5355 7.34091 55.3878 7.65909L54.1151 7.20455C54.3423 6.67424 54.6454 6.26136 55.0241 5.96591C55.4067 5.66667 55.8234 5.45833 56.2741 5.34091C56.7287 5.2197 57.1757 5.15909 57.6151 5.15909C57.8954 5.15909 58.2173 5.19318 58.581 5.26136C58.9484 5.32576 59.3026 5.46023 59.6435 5.66477C59.9882 5.86932 60.2741 6.17803 60.5014 6.59091C60.7287 7.00379 60.8423 7.55682 60.8423 8.25V14H59.5014V12.8182H59.4332C59.3423 13.0076 59.1908 13.2102 58.9787 13.4261C58.7666 13.642 58.4844 13.8258 58.1321 13.9773C57.7798 14.1288 57.3499 14.2045 56.8423 14.2045ZM57.0469 13C57.5772 13 58.0241 12.8958 58.3878 12.6875C58.7552 12.4792 59.0317 12.2102 59.2173 11.8807C59.4067 11.5511 59.5014 11.2045 59.5014 10.8409V9.61364C59.4446 9.68182 59.3196 9.74432 59.1264 9.80114C58.937 9.85417 58.7173 9.90151 58.4673 9.94318C58.2211 9.98106 57.9806 10.0152 57.7457 10.0455C57.5147 10.072 57.3272 10.0947 57.1832 10.1136C56.8348 10.1591 56.509 10.233 56.206 10.3352C55.9067 10.4337 55.6643 10.5833 55.4787 10.7841C55.2969 10.9811 55.206 11.25 55.206 11.5909C55.206 12.0568 55.3783 12.4091 55.723 12.6477C56.0715 12.8826 56.5128 13 57.0469 13ZM64.6307 8.75V14H63.2898V5.27273H64.5852V6.63636H64.6989C64.9034 6.19318 65.214 5.83712 65.6307 5.56818C66.0473 5.29545 66.5852 5.15909 67.2443 5.15909C67.8352 5.15909 68.3523 5.2803 68.7955 5.52273C69.2386 5.76136 69.5833 6.125 69.8295 6.61364C70.0758 7.09848 70.1989 7.71212 70.1989 8.45455V14H68.858V8.54545C68.858 7.85985 68.6799 7.32576 68.3239 6.94318C67.9678 6.55682 67.4792 6.36364 66.858 6.36364C66.4299 6.36364 66.0473 6.45644 65.7102 6.64205C65.3769 6.82765 65.1136 7.09848 64.9205 7.45455C64.7273 7.81061 64.6307 8.24242 64.6307 8.75ZM76.1946 14.1818C75.4067 14.1818 74.7154 13.9943 74.1207 13.6193C73.5298 13.2443 73.0677 12.7197 72.7344 12.0455C72.4048 11.3712 72.2401 10.5833 72.2401 9.68182C72.2401 8.77273 72.4048 7.97917 72.7344 7.30114C73.0677 6.62311 73.5298 6.09659 74.1207 5.72159C74.7154 5.34659 75.4067 5.15909 76.1946 5.15909C76.9825 5.15909 77.6719 5.34659 78.2628 5.72159C78.8575 6.09659 79.3196 6.62311 79.6491 7.30114C79.9825 7.97917 80.1491 8.77273 80.1491 9.68182C80.1491 10.5833 79.9825 11.3712 79.6491 12.0455C79.3196 12.7197 78.8575 13.2443 78.2628 13.6193C77.6719 13.9943 76.9825 14.1818 76.1946 14.1818ZM76.1946 12.9773C76.7931 12.9773 77.2855 12.8239 77.6719 12.517C78.0582 12.2102 78.3442 11.8068 78.5298 11.3068C78.7154 10.8068 78.8082 10.2652 78.8082 9.68182C78.8082 9.09848 78.7154 8.55492 78.5298 8.05114C78.3442 7.54735 78.0582 7.14015 77.6719 6.82955C77.2855 6.51894 76.7931 6.36364 76.1946 6.36364C75.5961 6.36364 75.1037 6.51894 74.7173 6.82955C74.331 7.14015 74.045 7.54735 73.8594 8.05114C73.6738 8.55492 73.581 9.09848 73.581 9.68182C73.581 10.2652 73.6738 10.8068 73.8594 11.3068C74.045 11.8068 74.331 12.2102 74.7173 12.517C75.1037 12.8239 75.5961 12.9773 76.1946 12.9773Z"/>
</mask>
<path d="M19.4091 14V2.36364H20.8182V7.54545H27.0227V2.36364H28.4318V14H27.0227V8.79545H20.8182V14H19.4091ZM36.571 10.4318V5.27273H37.9119V14H36.571V12.5227H36.4801C36.2756 12.9659 35.9574 13.3428 35.5256 13.6534C35.0938 13.9602 34.5483 14.1136 33.8892 14.1136C33.3438 14.1136 32.8589 13.9943 32.4347 13.7557C32.0104 13.5133 31.6771 13.1496 31.4347 12.6648C31.1922 12.1761 31.071 11.5606 31.071 10.8182V5.27273H32.4119V10.7273C32.4119 11.3636 32.59 11.8712 32.946 12.25C33.3059 12.6288 33.7642 12.8182 34.321 12.8182C34.6544 12.8182 34.9934 12.733 35.3381 12.5625C35.6866 12.392 35.9782 12.1307 36.2131 11.7784C36.4517 11.4261 36.571 10.9773 36.571 10.4318ZM40.3679 14V5.27273H41.6634V6.63636H41.777C41.9588 6.17045 42.2524 5.80871 42.6577 5.55114C43.063 5.28977 43.5497 5.15909 44.1179 5.15909C44.6937 5.15909 45.1728 5.28977 45.5554 5.55114C45.9418 5.80871 46.2429 6.17045 46.4588 6.63636H46.5497C46.7732 6.18561 47.1084 5.82765 47.5554 5.5625C48.0024 5.29356 48.5384 5.15909 49.1634 5.15909C49.9437 5.15909 50.5819 5.40341 51.0781 5.89205C51.5743 6.37689 51.8224 7.13258 51.8224 8.15909V14H50.4815V8.15909C50.4815 7.51515 50.3054 7.05492 49.9531 6.77841C49.6009 6.50189 49.1861 6.36364 48.7088 6.36364C48.0952 6.36364 47.6198 6.54924 47.2827 6.92045C46.9455 7.28788 46.777 7.75379 46.777 8.31818V14H45.4134V8.02273C45.4134 7.52652 45.2524 7.12689 44.9304 6.82386C44.6084 6.51705 44.1937 6.36364 43.6861 6.36364C43.3376 6.36364 43.0118 6.45644 42.7088 6.64205C42.4096 6.82765 42.1671 7.08523 41.9815 7.41477C41.7997 7.74053 41.7088 8.11742 41.7088 8.54545V14H40.3679ZM56.8423 14.2045C56.2893 14.2045 55.7874 14.1004 55.3366 13.892C54.8859 13.6799 54.5279 13.375 54.2628 12.9773C53.9976 12.5758 53.8651 12.0909 53.8651 11.5227C53.8651 11.0227 53.9635 10.6174 54.1605 10.3068C54.3575 9.99242 54.6207 9.74621 54.9503 9.56818C55.2798 9.39015 55.6435 9.25758 56.0412 9.17045C56.4427 9.07955 56.8461 9.00758 57.2514 8.95455C57.7817 8.88636 58.2116 8.83523 58.5412 8.80114C58.8745 8.76326 59.117 8.70076 59.2685 8.61364C59.4238 8.52652 59.5014 8.375 59.5014 8.15909V8.11364C59.5014 7.55303 59.348 7.11742 59.0412 6.80682C58.7382 6.49621 58.2779 6.34091 57.6605 6.34091C57.0204 6.34091 56.5185 6.48106 56.1548 6.76136C55.7912 7.04167 55.5355 7.34091 55.3878 7.65909L54.1151 7.20455C54.3423 6.67424 54.6454 6.26136 55.0241 5.96591C55.4067 5.66667 55.8234 5.45833 56.2741 5.34091C56.7287 5.2197 57.1757 5.15909 57.6151 5.15909C57.8954 5.15909 58.2173 5.19318 58.581 5.26136C58.9484 5.32576 59.3026 5.46023 59.6435 5.66477C59.9882 5.86932 60.2741 6.17803 60.5014 6.59091C60.7287 7.00379 60.8423 7.55682 60.8423 8.25V14H59.5014V12.8182H59.4332C59.3423 13.0076 59.1908 13.2102 58.9787 13.4261C58.7666 13.642 58.4844 13.8258 58.1321 13.9773C57.7798 14.1288 57.3499 14.2045 56.8423 14.2045ZM57.0469 13C57.5772 13 58.0241 12.8958 58.3878 12.6875C58.7552 12.4792 59.0317 12.2102 59.2173 11.8807C59.4067 11.5511 59.5014 11.2045 59.5014 10.8409V9.61364C59.4446 9.68182 59.3196 9.74432 59.1264 9.80114C58.937 9.85417 58.7173 9.90151 58.4673 9.94318C58.2211 9.98106 57.9806 10.0152 57.7457 10.0455C57.5147 10.072 57.3272 10.0947 57.1832 10.1136C56.8348 10.1591 56.509 10.233 56.206 10.3352C55.9067 10.4337 55.6643 10.5833 55.4787 10.7841C55.2969 10.9811 55.206 11.25 55.206 11.5909C55.206 12.0568 55.3783 12.4091 55.723 12.6477C56.0715 12.8826 56.5128 13 57.0469 13ZM64.6307 8.75V14H63.2898V5.27273H64.5852V6.63636H64.6989C64.9034 6.19318 65.214 5.83712 65.6307 5.56818C66.0473 5.29545 66.5852 5.15909 67.2443 5.15909C67.8352 5.15909 68.3523 5.2803 68.7955 5.52273C69.2386 5.76136 69.5833 6.125 69.8295 6.61364C70.0758 7.09848 70.1989 7.71212 70.1989 8.45455V14H68.858V8.54545C68.858 7.85985 68.6799 7.32576 68.3239 6.94318C67.9678 6.55682 67.4792 6.36364 66.858 6.36364C66.4299 6.36364 66.0473 6.45644 65.7102 6.64205C65.3769 6.82765 65.1136 7.09848 64.9205 7.45455C64.7273 7.81061 64.6307 8.24242 64.6307 8.75ZM76.1946 14.1818C75.4067 14.1818 74.7154 13.9943 74.1207 13.6193C73.5298 13.2443 73.0677 12.7197 72.7344 12.0455C72.4048 11.3712 72.2401 10.5833 72.2401 9.68182C72.2401 8.77273 72.4048 7.97917 72.7344 7.30114C73.0677 6.62311 73.5298 6.09659 74.1207 5.72159C74.7154 5.34659 75.4067 5.15909 76.1946 5.15909C76.9825 5.15909 77.6719 5.34659 78.2628 5.72159C78.8575 6.09659 79.3196 6.62311 79.6491 7.30114C79.9825 7.97917 80.1491 8.77273 80.1491 9.68182C80.1491 10.5833 79.9825 11.3712 79.6491 12.0455C79.3196 12.7197 78.8575 13.2443 78.2628 13.6193C77.6719 13.9943 76.9825 14.1818 76.1946 14.1818ZM76.1946 12.9773C76.7931 12.9773 77.2855 12.8239 77.6719 12.517C78.0582 12.2102 78.3442 11.8068 78.5298 11.3068C78.7154 10.8068 78.8082 10.2652 78.8082 9.68182C78.8082 9.09848 78.7154 8.55492 78.5298 8.05114C78.3442 7.54735 78.0582 7.14015 77.6719 6.82955C77.2855 6.51894 76.7931 6.36364 76.1946 6.36364C75.5961 6.36364 75.1037 6.51894 74.7173 6.82955C74.331 7.14015 74.045 7.54735 73.8594 8.05114C73.6738 8.55492 73.581 9.09848 73.581 9.68182C73.581 10.2652 73.6738 10.8068 73.8594 11.3068C74.045 11.8068 74.331 12.2102 74.7173 12.517C75.1037 12.8239 75.5961 12.9773 76.1946 12.9773Z" fill="white"/>
<path d="M19.4091 14H18.4091V15H19.4091V14ZM19.4091 2.36364V1.36364H18.4091V2.36364H19.4091ZM20.8182 2.36364H21.8182V1.36364H20.8182V2.36364ZM20.8182 7.54545H19.8182V8.54545H20.8182V7.54545ZM27.0227 7.54545V8.54545H28.0227V7.54545H27.0227ZM27.0227 2.36364V1.36364H26.0227V2.36364H27.0227ZM28.4318 2.36364H29.4318V1.36364H28.4318V2.36364ZM28.4318 14V15H29.4318V14H28.4318ZM27.0227 14H26.0227V15H27.0227V14ZM27.0227 8.79545H28.0227V7.79545H27.0227V8.79545ZM20.8182 8.79545V7.79545H19.8182V8.79545H20.8182ZM20.8182 14V15H21.8182V14H20.8182ZM19.4091 14H20.4091V2.36364H19.4091H18.4091V14H19.4091ZM19.4091 2.36364V3.36364H20.8182V2.36364V1.36364H19.4091V2.36364ZM20.8182 2.36364H19.8182V7.54545H20.8182H21.8182V2.36364H20.8182ZM20.8182 7.54545V8.54545H27.0227V7.54545V6.54545H20.8182V7.54545ZM27.0227 7.54545H28.0227V2.36364H27.0227H26.0227V7.54545H27.0227ZM27.0227 2.36364V3.36364H28.4318V2.36364V1.36364H27.0227V2.36364ZM28.4318 2.36364H27.4318V14H28.4318H29.4318V2.36364H28.4318ZM28.4318 14V13H27.0227V14V15H28.4318V14ZM27.0227 14H28.0227V8.79545H27.0227H26.0227V14H27.0227ZM27.0227 8.79545V7.79545H20.8182V8.79545V9.79545H27.0227V8.79545ZM20.8182 8.79545H19.8182V14H20.8182H21.8182V8.79545H20.8182ZM20.8182 14V13H19.4091V14V15H20.8182V14ZM36.571 5.27273V4.27273H35.571V5.27273H36.571ZM37.9119 5.27273H38.9119V4.27273H37.9119V5.27273ZM37.9119 14V15H38.9119V14H37.9119ZM36.571 14H35.571V15H36.571V14ZM36.571 12.5227H37.571V11.5227H36.571V12.5227ZM36.4801 12.5227V11.5227H35.8403L35.5722 12.1037L36.4801 12.5227ZM35.5256 13.6534L36.1048 14.4686L36.1095 14.4652L35.5256 13.6534ZM32.4347 13.7557L31.9385 14.6239L31.9444 14.6273L32.4347 13.7557ZM31.4347 12.6648L30.5388 13.1092L30.5402 13.112L31.4347 12.6648ZM31.071 5.27273V4.27273H30.071V5.27273H31.071ZM32.4119 5.27273H33.4119V4.27273H32.4119V5.27273ZM32.946 12.25L32.2174 12.9349L32.221 12.9387L32.946 12.25ZM35.3381 12.5625L34.8987 11.6642L34.8948 11.6661L35.3381 12.5625ZM36.2131 11.7784L35.3851 11.2175L35.381 11.2237L36.2131 11.7784ZM36.571 10.4318H37.571V5.27273H36.571H35.571V10.4318H36.571ZM36.571 5.27273V6.27273H37.9119V5.27273V4.27273H36.571V5.27273ZM37.9119 5.27273H36.9119V14H37.9119H38.9119V5.27273H37.9119ZM37.9119 14V13H36.571V14V15H37.9119V14ZM36.571 14H37.571V12.5227H36.571H35.571V14H36.571ZM36.571 12.5227V11.5227H36.4801V12.5227V13.5227H36.571V12.5227ZM36.4801 12.5227L35.5722 12.1037C35.4463 12.3763 35.2463 12.6225 34.9416 12.8416L35.5256 13.6534L36.1095 14.4652C36.6685 14.0631 37.1048 13.5555 37.3881 12.9418L36.4801 12.5227ZM35.5256 13.6534L34.9464 12.8382C34.7212 12.9982 34.3919 13.1136 33.8892 13.1136V14.1136V15.1136C34.7047 15.1136 35.4663 14.9222 36.1048 14.4686L35.5256 13.6534ZM33.8892 14.1136V13.1136C33.4944 13.1136 33.1821 13.0288 32.9249 12.8841L32.4347 13.7557L31.9444 14.6273C32.5357 14.9599 33.1931 15.1136 33.8892 15.1136V14.1136ZM32.4347 13.7557L32.9308 12.8874C32.6965 12.7535 32.4933 12.5459 32.3291 12.2176L31.4347 12.6648L30.5402 13.112C30.8609 13.7533 31.3244 14.273 31.9385 14.6239L32.4347 13.7557ZM31.4347 12.6648L32.3305 12.2203C32.1767 11.9104 32.071 11.4592 32.071 10.8182H31.071H30.071C30.071 11.662 30.2078 12.4418 30.5388 13.1092L31.4347 12.6648ZM31.071 10.8182H32.071V5.27273H31.071H30.071V10.8182H31.071ZM31.071 5.27273V6.27273H32.4119V5.27273V4.27273H31.071V5.27273ZM32.4119 5.27273H31.4119V10.7273H32.4119H33.4119V5.27273H32.4119ZM32.4119 10.7273H31.4119C31.4119 11.5581 31.6498 12.3311 32.2174 12.9349L32.946 12.25L33.6747 11.5651C33.5301 11.4113 33.4119 11.1692 33.4119 10.7273H32.4119ZM32.946 12.25L32.221 12.9387C32.7831 13.5304 33.5102 13.8182 34.321 13.8182V12.8182V11.8182C34.0182 11.8182 33.8286 11.7272 33.671 11.5613L32.946 12.25ZM34.321 12.8182V13.8182C34.8301 13.8182 35.32 13.687 35.7813 13.4589L35.3381 12.5625L34.8948 11.6661C34.6667 11.7789 34.4786 11.8182 34.321 11.8182V12.8182ZM35.3381 12.5625L35.7775 13.4608C36.2993 13.2056 36.7213 12.8188 37.0451 12.3331L36.2131 11.7784L35.381 11.2237C35.2351 11.4426 35.0739 11.5785 34.8987 11.6642L35.3381 12.5625ZM36.2131 11.7784L37.041 12.3393C37.4196 11.7804 37.571 11.1211 37.571 10.4318H36.571H35.571C35.571 10.8334 35.4838 11.0719 35.3851 11.2176L36.2131 11.7784ZM40.3679 14H39.3679V15H40.3679V14ZM40.3679 5.27273V4.27273H39.3679V5.27273H40.3679ZM41.6634 5.27273H42.6634V4.27273H41.6634V5.27273ZM41.6634 6.63636H40.6634V7.63636H41.6634V6.63636ZM41.777 6.63636V7.63636H42.4602L42.7086 6.99991L41.777 6.63636ZM42.6577 5.55114L43.194 6.39514L43.1996 6.39155L42.6577 5.55114ZM45.5554 5.55114L44.9913 6.3769L45.0007 6.38319L45.5554 5.55114ZM46.4588 6.63636L45.5515 7.05682L45.8201 7.63636H46.4588V6.63636ZM46.5497 6.63636V7.63636H47.1701L47.4456 7.08056L46.5497 6.63636ZM47.5554 5.5625L48.0656 6.42257L48.071 6.41935L47.5554 5.5625ZM51.0781 5.89205L50.3765 6.60458L50.3793 6.60729L51.0781 5.89205ZM51.8224 14V15H52.8224V14H51.8224ZM50.4815 14H49.4815V15H50.4815V14ZM49.9531 6.77841L49.3357 7.56502L49.3357 7.56502L49.9531 6.77841ZM47.2827 6.92045L48.0195 7.59653L48.023 7.59275L47.2827 6.92045ZM46.777 14V15H47.777V14H46.777ZM45.4134 14H44.4134V15H45.4134V14ZM44.9304 6.82386L44.2405 7.54781L44.245 7.55206L44.9304 6.82386ZM42.7088 6.64205L42.1865 5.78928L42.1817 5.79224L42.7088 6.64205ZM41.9815 7.41477L41.1102 6.92403L41.1083 6.92741L41.9815 7.41477ZM41.7088 14V15H42.7088V14H41.7088ZM40.3679 14H41.3679V5.27273H40.3679H39.3679V14H40.3679ZM40.3679 5.27273V6.27273H41.6634V5.27273V4.27273H40.3679V5.27273ZM41.6634 5.27273H40.6634V6.63636H41.6634H42.6634V5.27273H41.6634ZM41.6634 6.63636V7.63636H41.777V6.63636V5.63636H41.6634V6.63636ZM41.777 6.63636L42.7086 6.99991C42.8165 6.72332 42.976 6.53369 43.194 6.39512L42.6577 5.55114L42.1213 4.70715C41.5287 5.08373 41.1011 5.61759 40.8454 6.27282L41.777 6.63636ZM42.6577 5.55114L43.1996 6.39155C43.4164 6.25176 43.7071 6.15909 44.1179 6.15909V5.15909V4.15909C43.3923 4.15909 42.7096 4.32778 42.1157 4.71072L42.6577 5.55114ZM44.1179 5.15909V6.15909C44.5415 6.15909 44.8113 6.25391 44.9913 6.37684L45.5554 5.55114L46.1195 4.72543C45.5343 4.32564 44.8458 4.15909 44.1179 4.15909V5.15909ZM45.5554 5.55114L45.0007 6.38319C45.218 6.52804 45.4045 6.73972 45.5515 7.05682L46.4588 6.63636L47.3661 6.2159C47.0812 5.60118 46.6655 5.08938 46.1101 4.71909L45.5554 5.55114ZM46.4588 6.63636V7.63636H46.5497V6.63636V5.63636H46.4588V6.63636ZM46.5497 6.63636L47.4456 7.08056C47.5804 6.80867 47.7789 6.59265 48.0656 6.42255L47.5554 5.5625L47.0452 4.70245C46.438 5.06265 45.966 5.56254 45.6538 6.19216L46.5497 6.63636ZM47.5554 5.5625L48.071 6.41935C48.3339 6.26112 48.6838 6.15909 49.1634 6.15909V5.15909V4.15909C48.3929 4.15909 47.6708 4.326 47.0398 4.70565L47.5554 5.5625ZM49.1634 5.15909V6.15909C49.7156 6.15909 50.0906 6.32301 50.3765 6.60457L51.0781 5.89205L51.7798 5.17952C51.0733 4.48381 50.1717 4.15909 49.1634 4.15909V5.15909ZM51.0781 5.89205L50.3793 6.60729C50.607 6.82984 50.8224 7.27305 50.8224 8.15909H51.8224H52.8224C52.8224 6.99211 52.5417 5.92394 51.777 5.1768L51.0781 5.89205ZM51.8224 8.15909H50.8224V14H51.8224H52.8224V8.15909H51.8224ZM51.8224 14V13H50.4815V14V15H51.8224V14ZM50.4815 14H51.4815V8.15909H50.4815H49.4815V14H50.4815ZM50.4815 8.15909H51.4815C51.4815 7.34871 51.2568 6.53041 50.5706 5.9918L49.9531 6.77841L49.3357 7.56502C49.354 7.57944 49.4815 7.68159 49.4815 8.15909H50.4815ZM49.9531 6.77841L50.5706 5.9918C50.0302 5.56761 49.3942 5.36364 48.7088 5.36364V6.36364V7.36364C48.9779 7.36364 49.1715 7.43618 49.3357 7.56502L49.9531 6.77841ZM48.7088 6.36364V5.36364C47.8814 5.36364 47.1105 5.62263 46.5424 6.24816L47.2827 6.92045L48.023 7.59275C48.1291 7.47585 48.309 7.36364 48.7088 7.36364V6.36364ZM47.2827 6.92045L46.5458 6.24439C46.0169 6.82087 45.777 7.53893 45.777 8.31818H46.777H47.777C47.777 7.96864 47.8742 7.75489 48.0195 7.59652L47.2827 6.92045ZM46.777 8.31818H45.777V14H46.777H47.777V8.31818H46.777ZM46.777 14V13H45.4134V14V15H46.777V14ZM45.4134 14H46.4134V8.02273H45.4134H44.4134V14H45.4134ZM45.4134 8.02273H46.4134C46.4134 7.28798 46.1641 6.61173 45.6158 6.09566L44.9304 6.82386L44.245 7.55206C44.3407 7.64206 44.4134 7.76505 44.4134 8.02273H45.4134ZM44.9304 6.82386L45.6203 6.09993C45.0858 5.59061 44.4114 5.36364 43.6861 5.36364V6.36364V7.36364C43.9759 7.36364 44.1311 7.44348 44.2405 7.5478L44.9304 6.82386ZM43.6861 6.36364V5.36364C43.1495 5.36364 42.6435 5.5094 42.1865 5.78929L42.7088 6.64205L43.2311 7.4948C43.3802 7.40348 43.5257 7.36364 43.6861 7.36364V6.36364ZM42.7088 6.64205L42.1817 5.79224C41.7288 6.07317 41.3722 6.45892 41.1102 6.92404L41.9815 7.41477L42.8528 7.90551C42.9621 7.71154 43.0903 7.58213 43.2359 7.49185L42.7088 6.64205ZM41.9815 7.41477L41.1083 6.92741C40.8318 7.42288 40.7088 7.97225 40.7088 8.54545H41.7088H42.7088C42.7088 8.2626 42.7676 8.05818 42.8547 7.90214L41.9815 7.41477ZM41.7088 8.54545H40.7088V14H41.7088H42.7088V8.54545H41.7088ZM41.7088 14V13H40.3679V14V15H41.7088V14ZM55.3366 13.892L54.9108 14.7969L54.9171 14.7998L55.3366 13.892ZM54.2628 12.9773L53.4283 13.5283L53.4307 13.532L54.2628 12.9773ZM54.1605 10.3068L55.005 10.8424L55.0079 10.8377L54.1605 10.3068ZM56.0412 9.17045L56.2552 10.1473L56.262 10.1458L56.0412 9.17045ZM57.2514 8.95455L57.1239 7.96271L57.1217 7.963L57.2514 8.95455ZM58.5412 8.80114L58.6441 9.79588L58.6541 9.79474L58.5412 8.80114ZM59.2685 8.61364L58.7792 7.74144L58.77 7.74673L59.2685 8.61364ZM59.0412 6.80682L58.3254 7.50516L58.3298 7.50957L59.0412 6.80682ZM56.1548 6.76136L56.7653 7.55337L56.1548 6.76136ZM55.3878 7.65909L55.0514 8.60083L55.9106 8.90768L56.2948 8.0802L55.3878 7.65909ZM54.1151 7.20455L53.1959 6.81063L52.7768 7.78847L53.7787 8.14629L54.1151 7.20455ZM55.0241 5.96591L55.6392 6.75441L55.6402 6.75358L55.0241 5.96591ZM56.2741 5.34091L56.5262 6.30863L56.5318 6.30714L56.2741 5.34091ZM58.581 5.26136L58.3967 6.2443L58.4083 6.24635L58.581 5.26136ZM59.6435 5.66477L59.129 6.52227L59.1331 6.52476L59.6435 5.66477ZM60.5014 6.59091L59.6254 7.07314V7.07314L60.5014 6.59091ZM60.8423 14V15H61.8423V14H60.8423ZM59.5014 14H58.5014V15H59.5014V14ZM59.5014 12.8182H60.5014V11.8182H59.5014V12.8182ZM59.4332 12.8182V11.8182H58.804L58.5317 12.3854L59.4332 12.8182ZM58.9787 13.4261L59.692 14.127H59.692L58.9787 13.4261ZM58.1321 13.9773L57.737 13.0586L58.1321 13.9773ZM58.3878 12.6875L57.8945 11.8176L57.8907 11.8198L58.3878 12.6875ZM59.2173 11.8807L58.3503 11.3824L58.346 11.3899L59.2173 11.8807ZM59.5014 9.61364H60.5014V6.85157L58.7332 8.97345L59.5014 9.61364ZM59.1264 9.80114L59.3961 10.7642L59.4086 10.7605L59.1264 9.80114ZM58.4673 9.94318L58.6194 10.9316L58.6317 10.9296L58.4673 9.94318ZM57.7457 10.0455L57.8598 11.039L57.8737 11.0372L57.7457 10.0455ZM57.1832 10.1136L57.3126 11.1052L57.3137 11.1051L57.1832 10.1136ZM56.206 10.3352L56.5186 11.2851L56.5257 11.2827L56.206 10.3352ZM55.4787 10.7841L54.7444 10.1052L54.7439 10.1058L55.4787 10.7841ZM55.723 12.6477L55.1538 13.47L55.1642 13.477L55.723 12.6477ZM56.8423 14.2045V13.2045C56.4176 13.2045 56.0612 13.1253 55.7562 12.9843L55.3366 13.892L54.9171 14.7998C55.5136 15.0755 56.161 15.2045 56.8423 15.2045V14.2045ZM55.3366 13.892L55.7624 12.9872C55.4692 12.8492 55.2546 12.6622 55.0948 12.4226L54.2628 12.9773L53.4307 13.532C53.8013 14.0878 54.3026 14.5106 54.9109 14.7969L55.3366 13.892ZM54.2628 12.9773L55.0972 12.4262C54.9584 12.2159 54.8651 11.9311 54.8651 11.5227H53.8651H52.8651C52.8651 12.2507 53.0369 12.9356 53.4283 13.5283L54.2628 12.9773ZM53.8651 11.5227H54.8651C54.8651 11.1463 54.94 10.9449 55.005 10.8424L54.1605 10.3068L53.316 9.77128C52.9871 10.2899 52.8651 10.8991 52.8651 11.5227H53.8651ZM54.1605 10.3068L55.0079 10.8377C55.1122 10.6713 55.2466 10.5447 55.4256 10.448L54.9503 9.56818L54.475 8.68836C53.9949 8.94774 53.6028 9.31353 53.3131 9.7759L54.1605 10.3068ZM54.9503 9.56818L55.4256 10.448C55.6662 10.318 55.9408 10.2162 56.2552 10.1473L56.0412 9.17045L55.8272 8.19361C55.3462 8.29899 54.8935 8.46227 54.475 8.68836L54.9503 9.56818ZM56.0412 9.17045L56.262 10.1458C56.6337 10.0616 57.0067 9.99509 57.3812 9.94609L57.2514 8.95455L57.1217 7.963C56.6856 8.02006 56.2518 8.09747 55.8204 8.19514L56.0412 9.17045ZM57.2514 8.95455L57.3789 9.94638C57.9054 9.8787 58.3262 9.82872 58.6441 9.79583L58.5412 8.80114L58.4383 7.80644C58.0971 7.84174 57.6581 7.89403 57.1239 7.96271L57.2514 8.95455ZM58.5412 8.80114L58.6541 9.79474C59.0213 9.75302 59.4321 9.67306 59.7669 9.48054L59.2685 8.61364L58.77 7.74673C58.7978 7.73072 58.7916 7.73991 58.7234 7.75752C58.6592 7.77405 58.5633 7.79219 58.4283 7.80753L58.5412 8.80114ZM59.2685 8.61364L59.7577 9.48578C60.3005 9.18129 60.5014 8.64575 60.5014 8.15909H59.5014H58.5014C58.5014 8.14987 58.5029 8.07672 58.5532 7.97857C58.6084 7.87095 58.6936 7.78952 58.7792 7.74149L59.2685 8.61364ZM59.5014 8.15909H60.5014V8.11364H59.5014H58.5014V8.15909H59.5014ZM59.5014 8.11364H60.5014C60.5014 7.36802 60.2928 6.65089 59.7526 6.10406L59.0412 6.80682L58.3298 7.50957C58.4032 7.58396 58.5014 7.73804 58.5014 8.11364H59.5014ZM59.0412 6.80682L59.757 6.10849C59.1981 5.53563 58.432 5.34091 57.6605 5.34091V6.34091V7.34091C58.1238 7.34091 58.2782 7.45679 58.3254 7.50514L59.0412 6.80682ZM57.6605 6.34091V5.34091C56.8849 5.34091 56.1403 5.50999 55.5443 5.96935L56.1548 6.76136L56.7653 7.55337C56.8967 7.45213 57.1559 7.34091 57.6605 7.34091V6.34091ZM56.1548 6.76136L55.5443 5.96935C55.0914 6.31848 54.7137 6.7362 54.4808 7.23798L55.3878 7.65909L56.2948 8.0802C56.3573 7.94562 56.491 7.76485 56.7653 7.55337L56.1548 6.76136ZM55.3878 7.65909L55.7241 6.71735L54.4514 6.2628L54.1151 7.20455L53.7787 8.14629L55.0514 8.60083L55.3878 7.65909ZM54.1151 7.20455L55.0342 7.59846C55.2083 7.19217 55.4178 6.92712 55.6392 6.75441L55.0241 5.96591L54.4091 5.17741C53.873 5.5956 53.4763 6.15632 53.1959 6.81063L54.1151 7.20455ZM55.0241 5.96591L55.6402 6.75358C55.9198 6.53493 56.2135 6.39008 56.5262 6.30861L56.2741 5.34091L56.0221 4.37321C55.4333 4.52659 54.8937 4.7984 54.4081 5.17824L55.0241 5.96591ZM56.2741 5.34091L56.5318 6.30714C56.9082 6.20677 57.2686 6.15909 57.6151 6.15909V5.15909V4.15909C57.0828 4.15909 56.5492 4.23262 56.0165 4.37467L56.2741 5.34091ZM57.6151 5.15909V6.15909C57.8176 6.15909 58.0758 6.18407 58.3967 6.24424L58.581 5.26136L58.7653 4.27849C58.3589 4.2023 57.9732 4.15909 57.6151 4.15909V5.15909ZM58.581 5.26136L58.4083 6.24635C58.6472 6.28821 58.8863 6.37664 59.129 6.52226L59.6435 5.66477L60.158 4.80728C59.7189 4.54382 59.2496 4.3633 58.7536 4.27638L58.581 5.26136ZM59.6435 5.66477L59.1331 6.52476C59.2993 6.62336 59.4689 6.78882 59.6254 7.07314L60.5014 6.59091L61.3775 6.10868C61.0794 5.56725 60.677 5.11527 60.1538 4.80479L59.6435 5.66477ZM60.5014 6.59091L59.6254 7.07314C59.742 7.28491 59.8423 7.65168 59.8423 8.25H60.8423H61.8423C61.8423 7.46195 61.7154 6.72266 61.3775 6.10868L60.5014 6.59091ZM60.8423 8.25H59.8423V14H60.8423H61.8423V8.25H60.8423ZM60.8423 14V13H59.5014V14V15H60.8423V14ZM59.5014 14H60.5014V12.8182H59.5014H58.5014V14H59.5014ZM59.5014 12.8182V11.8182H59.4332V12.8182V13.8182H59.5014V12.8182ZM59.4332 12.8182L58.5317 12.3854C58.5043 12.4425 58.4314 12.5563 58.2654 12.7253L58.9787 13.4261L59.692 14.127C59.9502 13.8641 60.1803 13.5726 60.3348 13.2509L59.4332 12.8182ZM58.9787 13.4261L58.2654 12.7253C58.1649 12.8276 58.0006 12.9452 57.737 13.0586L58.1321 13.9773L58.5272 14.8959C58.9681 14.7063 59.3682 14.4565 59.692 14.127L58.9787 13.4261ZM58.1321 13.9773L57.737 13.0586C57.5429 13.1421 57.2558 13.2045 56.8423 13.2045V14.2045V15.2045C57.444 15.2045 58.0168 15.1154 58.5272 14.8959L58.1321 13.9773ZM57.0469 13V14C57.7061 14 58.3348 13.8703 58.8849 13.5552L58.3878 12.6875L57.8907 11.8198C57.7135 11.9213 57.4483 12 57.0469 12V13ZM58.3878 12.6875L58.881 13.5574C59.3876 13.2701 59.8037 12.8773 60.0886 12.3714L59.2173 11.8807L58.346 11.3899C58.2598 11.5431 58.1228 11.6882 57.8945 11.8176L58.3878 12.6875ZM59.2173 11.8807L60.0843 12.379C60.3568 11.905 60.5014 11.3875 60.5014 10.8409H59.5014H58.5014C58.5014 11.0216 58.4567 11.1973 58.3503 11.3824L59.2173 11.8807ZM59.5014 10.8409H60.5014V9.61364H59.5014H58.5014V10.8409H59.5014ZM59.5014 9.61364L58.7332 8.97345C58.7849 8.91137 58.8335 8.87242 58.8624 8.85169C58.8919 8.83046 58.9126 8.81982 58.9178 8.81722C58.9258 8.81322 58.9065 8.82345 58.8443 8.84177L59.1264 9.80114L59.4086 10.7605C59.5395 10.722 59.6793 10.6726 59.8123 10.6061C59.935 10.5447 60.1168 10.4373 60.2696 10.2538L59.5014 9.61364ZM59.1264 9.80114L58.8568 8.83817C58.7102 8.87921 58.527 8.91944 58.3029 8.95679L58.4673 9.94318L58.6317 10.9296C58.9077 10.8836 59.1638 10.8291 59.396 10.7641L59.1264 9.80114ZM58.4673 9.94318L58.3153 8.95481C58.0767 8.99152 57.8442 9.02446 57.6178 9.05368L57.7457 10.0455L57.8737 11.0372C58.117 11.0058 58.3656 10.9706 58.6194 10.9316L58.4673 9.94318ZM57.7457 10.0455L57.6317 9.05197C57.398 9.07879 57.2044 9.10223 57.0528 9.12218L57.1832 10.1136L57.3137 11.1051C57.4499 11.0872 57.6313 11.0651 57.8597 11.0389L57.7457 10.0455ZM57.1832 10.1136L57.0539 9.12204C56.6469 9.17512 56.2568 9.26264 55.8862 9.38774L56.206 10.3352L56.5257 11.2827C56.7612 11.2033 57.0226 11.1431 57.3126 11.1052L57.1832 10.1136ZM56.206 10.3352L55.8933 9.38535C55.4576 9.52875 55.0618 9.76194 54.7444 10.1052L55.4787 10.7841L56.213 11.4629C56.2668 11.4047 56.3558 11.3387 56.5186 11.2851L56.206 10.3352ZM55.4787 10.7841L54.7439 10.1058C54.3489 10.5337 54.206 11.0695 54.206 11.5909H55.206H56.206C56.206 11.5082 56.2171 11.4667 56.2215 11.4538C56.2247 11.4442 56.2233 11.4517 56.2135 11.4624L55.4787 10.7841ZM55.206 11.5909H54.206C54.206 12.3423 54.506 13.0215 55.1538 13.4699L55.723 12.6477L56.2922 11.8255C56.2505 11.7966 56.2393 11.777 56.2335 11.7651C56.2257 11.7492 56.206 11.6999 56.206 11.5909H55.206ZM55.723 12.6477L55.1642 13.477C55.7174 13.8498 56.3675 14 57.0469 14V13V12C56.6581 12 56.4256 11.9153 56.2819 11.8185L55.723 12.6477ZM64.6307 14V15H65.6307V14H64.6307ZM63.2898 14H62.2898V15H63.2898V14ZM63.2898 5.27273V4.27273H62.2898V5.27273H63.2898ZM64.5852 5.27273H65.5852V4.27273H64.5852V5.27273ZM64.5852 6.63636H63.5852V7.63636H64.5852V6.63636ZM64.6989 6.63636V7.63636H65.3387L65.6068 7.05542L64.6989 6.63636ZM65.6307 5.56818L66.173 6.40838L66.1783 6.40488L65.6307 5.56818ZM68.7955 5.52273L68.3155 6.40007L68.3214 6.4032L68.7955 5.52273ZM69.8295 6.61364L68.9365 7.06362L68.9379 7.06641L69.8295 6.61364ZM70.1989 14V15H71.1989V14H70.1989ZM68.858 14H67.858V15H68.858V14ZM68.3239 6.94318L67.5885 7.62087L67.5918 7.62447L68.3239 6.94318ZM65.7102 6.64205L65.2279 5.76603L65.2237 5.76836L65.7102 6.64205ZM64.9205 7.45455L64.0415 6.97766L64.9205 7.45455ZM64.6307 8.75H63.6307V14H64.6307H65.6307V8.75H64.6307ZM64.6307 14V13H63.2898V14V15H64.6307V14ZM63.2898 14H64.2898V5.27273H63.2898H62.2898V14H63.2898ZM63.2898 5.27273V6.27273H64.5852V5.27273V4.27273H63.2898V5.27273ZM64.5852 5.27273H63.5852V6.63636H64.5852H65.5852V5.27273H64.5852ZM64.5852 6.63636V7.63636H64.6989V6.63636V5.63636H64.5852V6.63636ZM64.6989 6.63636L65.6068 7.05542C65.7305 6.78735 65.913 6.57619 66.173 6.40837L65.6307 5.56818L65.0884 4.728C64.5151 5.09805 64.0763 5.59902 63.7909 6.21731L64.6989 6.63636ZM65.6307 5.56818L66.1783 6.40488C66.3873 6.26811 66.718 6.15909 67.2443 6.15909V5.15909V4.15909C66.4524 4.15909 65.7074 4.3228 65.083 4.73148L65.6307 5.56818ZM67.2443 5.15909V6.15909C67.6961 6.15909 68.0427 6.25081 68.3156 6.40005L68.7955 5.52273L69.2754 4.6454C68.6618 4.3098 67.9744 4.15909 67.2443 4.15909V5.15909ZM68.7955 5.52273L68.3214 6.4032C68.5682 6.53614 68.7741 6.74128 68.9365 7.06362L69.8295 6.61364L70.7226 6.16366C70.3926 5.50872 69.909 4.98659 69.2696 4.64226L68.7955 5.52273ZM69.8295 6.61364L68.9379 7.06641C69.0917 7.36929 69.1989 7.81492 69.1989 8.45455H70.1989H71.1989C71.1989 7.60933 71.0598 6.82768 70.7212 6.16086L69.8295 6.61364ZM70.1989 8.45455H69.1989V14H70.1989H71.1989V8.45455H70.1989ZM70.1989 14V13H68.858V14V15H70.1989V14ZM68.858 14H69.858V8.54545H68.858H67.858V14H68.858ZM68.858 8.54545H69.858C69.858 7.68807 69.6324 6.88135 69.0559 6.2619L68.3239 6.94318L67.5918 7.62447C67.7274 7.77016 67.858 8.03162 67.858 8.54545H68.858ZM68.3239 6.94318L69.0592 6.2655C68.4792 5.63615 67.703 5.36364 66.858 5.36364V6.36364V7.36364C67.2553 7.36364 67.4564 7.47749 67.5885 7.62086L68.3239 6.94318ZM66.858 6.36364V5.36364C66.2806 5.36364 65.7288 5.49026 65.2279 5.76604L65.7102 6.64205L66.1925 7.51805C66.3659 7.42261 66.5793 7.36364 66.858 7.36364V6.36364ZM65.7102 6.64205L65.2237 5.76836C64.7142 6.05209 64.3193 6.46555 64.0415 6.97766L64.9205 7.45455L65.7994 7.93143C65.9079 7.73142 66.0396 7.60321 66.1967 7.51573L65.7102 6.64205ZM64.9205 7.45455L64.0415 6.97766C63.7512 7.51263 63.6307 8.11725 63.6307 8.75H64.6307H65.6307C65.6307 8.3676 65.7033 8.10858 65.7994 7.93143L64.9205 7.45455ZM74.1207 13.6193L73.5849 14.4637L73.5874 14.4652L74.1207 13.6193ZM72.7344 12.0455L71.8359 12.4846L71.8379 12.4886L72.7344 12.0455ZM72.7344 7.30114L71.837 6.85994L71.835 6.864L72.7344 7.30114ZM74.1207 5.72159L73.5874 4.87571L73.5849 4.87726L74.1207 5.72159ZM78.2628 5.72159L77.727 6.56592L77.7294 6.56746L78.2628 5.72159ZM79.6491 7.30114L78.7497 7.73828L78.7517 7.74232L79.6491 7.30114ZM79.6491 12.0455L78.7527 11.6023L78.7507 11.6063L79.6491 12.0455ZM78.2628 13.6193L77.7294 12.7734L77.727 12.775L78.2628 13.6193ZM77.6719 12.517L77.05 11.7339L77.6719 12.517ZM78.5298 11.3068L79.4673 11.6548H79.4673L78.5298 11.3068ZM78.5298 8.05114L79.4682 7.70543V7.70543L78.5298 8.05114ZM77.6719 6.82955L78.2984 6.05017L77.6719 6.82955ZM74.7173 6.82955L74.0908 6.05017H74.0908L74.7173 6.82955ZM73.8594 8.05114L72.921 7.70543V7.70543L73.8594 8.05114ZM73.8594 11.3068L72.9219 11.6548L73.8594 11.3068ZM74.7173 12.517L75.3392 11.7339L74.7173 12.517ZM76.1946 14.1818V13.1818C75.572 13.1818 75.0704 13.0359 74.6541 12.7734L74.1207 13.6193L73.5874 14.4652C74.3605 14.9527 75.2414 15.1818 76.1946 15.1818V14.1818ZM74.1207 13.6193L74.6566 12.775C74.2319 12.5055 73.8893 12.125 73.6308 11.6023L72.7344 12.0455L71.8379 12.4886C72.2462 13.3144 72.8278 13.9831 73.5849 14.4636L74.1207 13.6193ZM72.7344 12.0455L73.6328 11.6063C73.3822 11.0936 73.2401 10.4614 73.2401 9.68182H72.2401H71.2401C71.2401 10.7053 71.4274 11.6488 71.8359 12.4846L72.7344 12.0455ZM72.2401 9.68182H73.2401C73.2401 8.89342 73.3827 8.25489 73.6338 7.73827L72.7344 7.30114L71.835 6.864C71.427 7.70344 71.2401 8.65203 71.2401 9.68182H72.2401ZM72.7344 7.30114L73.6318 7.74232C73.8907 7.21574 74.2333 6.83452 74.6566 6.56592L74.1207 5.72159L73.5849 4.87726C72.8263 5.35866 72.2447 6.03047 71.837 6.85995L72.7344 7.30114ZM74.1207 5.72159L74.6541 6.56746C75.0704 6.30498 75.572 6.15909 76.1946 6.15909V5.15909V4.15909C75.2414 4.15909 74.3605 4.3882 73.5874 4.87572L74.1207 5.72159ZM76.1946 5.15909V6.15909C76.8173 6.15909 77.3158 6.30501 77.727 6.56592L78.2628 5.72159L78.7986 4.87726C78.0279 4.38818 77.1477 4.15909 76.1946 4.15909V5.15909ZM78.2628 5.72159L77.7294 6.56746C78.1549 6.83578 78.4956 7.21532 78.7498 7.73827L79.6491 7.30114L80.5485 6.864C80.1436 6.03089 79.5601 5.3574 78.7962 4.87572L78.2628 5.72159ZM79.6491 7.30114L78.7517 7.74232C79.0052 8.25795 79.1491 8.89499 79.1491 9.68182H80.1491H81.1491C81.1491 8.65046 80.9597 7.70039 80.5466 6.85995L79.6491 7.30114ZM80.1491 9.68182H79.1491C79.1491 10.4598 79.0057 11.0906 78.7527 11.6023L79.6491 12.0455L80.5456 12.4886C80.9593 11.6519 81.1491 10.7069 81.1491 9.68182H80.1491ZM79.6491 12.0455L78.7507 11.6063C78.497 12.1255 78.1563 12.5042 77.7294 12.7734L78.2628 13.6193L78.7962 14.4652C79.5586 13.9844 80.1422 13.3139 80.5476 12.4846L79.6491 12.0455ZM78.2628 13.6193L77.727 12.775C77.3158 13.0359 76.8173 13.1818 76.1946 13.1818V14.1818V15.1818C77.1477 15.1818 78.0279 14.9527 78.7986 14.4636L78.2628 13.6193ZM76.1946 12.9773V13.9773C76.9693 13.9773 77.6952 13.7755 78.2938 13.3002L77.6719 12.517L77.05 11.7339C76.8758 11.8723 76.6169 11.9773 76.1946 11.9773V12.9773ZM77.6719 12.517L78.2938 13.3002C78.8346 12.8707 79.2235 12.3116 79.4673 11.6548L78.5298 11.3068L77.5923 10.9588C77.4649 11.3021 77.2819 11.5498 77.05 11.7339L77.6719 12.517ZM78.5298 11.3068L79.4673 11.6548C79.698 11.0335 79.8082 10.3728 79.8082 9.68182H78.8082H77.8082C77.8082 10.1575 77.7329 10.5802 77.5923 10.9588L78.5298 11.3068ZM78.8082 9.68182H79.8082C79.8082 8.99074 79.698 8.32912 79.4682 7.70543L78.5298 8.05114L77.5915 8.39684C77.7329 8.78073 77.8082 9.20623 77.8082 9.68182H78.8082ZM78.5298 8.05114L79.4682 7.70543C79.2253 7.04612 78.8378 6.48377 78.2984 6.05017L77.6719 6.82955L77.0453 7.60892C77.2787 7.79653 77.4632 8.04858 77.5915 8.39684L78.5298 8.05114ZM77.6719 6.82955L78.2984 6.05017C77.6998 5.56888 76.9721 5.36364 76.1946 5.36364V6.36364V7.36364C76.6141 7.36364 76.8713 7.469 77.0453 7.60892L77.6719 6.82955ZM76.1946 6.36364V5.36364C75.4171 5.36364 74.6894 5.56888 74.0908 6.05017L74.7173 6.82955L75.3439 7.60892C75.5179 7.469 75.7751 7.36364 76.1946 7.36364V6.36364ZM74.7173 6.82955L74.0908 6.05017C73.5514 6.48377 73.1639 7.04612 72.921 7.70543L73.8594 8.05114L74.7977 8.39684C74.926 8.04858 75.1105 7.79653 75.3439 7.60892L74.7173 6.82955ZM73.8594 8.05114L72.921 7.70543C72.6913 8.32912 72.581 8.99074 72.581 9.68182H73.581H74.581C74.581 9.20623 74.6563 8.78073 74.7977 8.39684L73.8594 8.05114ZM73.581 9.68182H72.581C72.581 10.3728 72.6912 11.0335 72.9219 11.6548L73.8594 11.3068L74.7969 10.9588C74.6563 10.5802 74.581 10.1575 74.581 9.68182H73.581ZM73.8594 11.3068L72.9219 11.6548C73.1657 12.3116 73.5546 12.8707 74.0954 13.3002L74.7173 12.517L75.3392 11.7339C75.1073 11.5498 74.9243 11.3021 74.7969 10.9588L73.8594 11.3068ZM74.7173 12.517L74.0954 13.3002C74.694 13.7755 75.4199 13.9773 76.1946 13.9773V12.9773V11.9773C75.7723 11.9773 75.5134 11.8723 75.3392 11.7339L74.7173 12.517Z" fill="#868686" fill-opacity="0.44" mask="url(#path-2-outside-1_202_35)"/>
</svg>
